{
    "asset" : {
        "generator" : "Khronos glTF Blender I/O v3.2.43",
        "version" : "2.0"
    },
    "scene" : 0,
    "scenes" : [
        {
            "name" : "Scene",
            "nodes" : [
                1,
                3
            ]
        }
    ],
    "nodes" : [
        {
            "mesh" : 0,
            "name" : "discard_tile_face",
            "scale" : [
                0.2503996193408966,
                0.25039976835250854,
                0.2503996193408966
            ]
        },
        {
            "children" : [
                0
            ],
            "mesh" : 1,
            "name" : "discard_tile",
            "rotation" : [
                0.7071068286895752,
                0,
                0,
                0.7071068286895752
            ],
            "translation" : [
                -0.15000000596046448,
                -0.07999999821186066,
                0
            ]
        },
        {
            "mesh" : 2,
            "name" : "download_tile_face",
            "scale" : [
                0.2503996193408966,
                0.25039976835250854,
                0.2503996193408966
            ]
        },
        {
            "children" : [
                2
            ],
            "mesh" : 3,
            "name" : "download_tile",
            "rotation" : [
                0.7071068286895752,
                0,
                0,
                0.7071068286895752
            ],
            "translation" : [
                -0.15000000596046448,
                0.07999999821186066,
                0
            ]
        }
    ],
    "materials" : [
        {
            "doubleSided" : true,
            "name" : "Icon.001",
            "pbrMetallicRoughness" : {
                "baseColorTexture" : {
                    "index" : 0
                },
                "metallicFactor" : 0
            }
        },
        {
            "doubleSided" : true,
            "name" : "Trim.003",
            "pbrMetallicRoughness" : {}
        },
        {
            "doubleSided" : true,
            "name" : "Icon.007",
            "pbrMetallicRoughness" : {
                "baseColorTexture" : {
                    "index" : 1
                },
                "metallicFactor" : 0
            }
        },
        {
            "doubleSided" : true,
            "name" : "Trim.001",
            "pbrMetallicRoughness" : {}
        }
    ],
    "meshes" : [
        {
            "name" : "CUBezierCurve.004",
            "primitives" : [
                {
                    "attributes" : {
                        "POSITION" : 0,
                        "NORMAL" : 1,
                        "TEXCOORD_0" : 2
                    },
                    "indices" : 3,
                    "material" : 0
                }
            ]
        },
        {
            "name" : "CUBezierCurve.003",
            "primitives" : [
                {
                    "attributes" : {
                        "POSITION" : 4,
                        "NORMAL" : 5,
                        "TEXCOORD_0" : 6
                    },
                    "indices" : 7,
                    "material" : 1
                }
            ]
        },
        {
            "name" : "CUBezierCurve.001",
            "primitives" : [
                {
                    "attributes" : {
                        "POSITION" : 8,
                        "NORMAL" : 9,
                        "TEXCOORD_0" : 10
                    },
                    "indices" : 3,
                    "material" : 2
                }
            ]
        },
        {
            "name" : "CUBezierCurve.002",
            "primitives" : [
                {
                    "attributes" : {
                        "POSITION" : 11,
                        "NORMAL" : 12,
                        "TEXCOORD_0" : 13
                    },
                    "indices" : 7,
                    "material" : 3
                }
            ]
        }
    ],
    "textures" : [
        {
            "sampler" : 0,
            "source" : 0
        },
        {
            "sampler" : 0,
            "source" : 1
        }
    ],
    "images" : [
        {
            "mimeType" : "image/png",
            "name" : "trash",
            "uri" : "trash.png"
        },
        {
            "mimeType" : "image/png",
            "name" : "download",
            "uri" : "download.png"
        }
    ],
    "accessors" : [
        {
            "bufferView" : 0,
            "componentType" : 5126,
            "count" : 20,
            "max" : [
                0.1487303078174591,
                0.019682612270116806,
                0.16299337148666382
            ],
            "min" : [
                -0.1487303078174591,
                0.019682612270116806,
                -0.16267430782318115
            ],
            "type" : "VEC3"
        },
        {
            "bufferView" : 1,
            "componentType" : 5126,
            "count" : 20,
            "type" : "VEC3"
        },
        {
            "bufferView" : 2,
            "componentType" : 5126,
            "count" : 20,
            "type" : "VEC2"
        },
        {
            "bufferView" : 3,
            "componentType" : 5123,
            "count" : 48,
            "type" : "SCALAR"
        },
        {
            "bufferView" : 4,
            "componentType" : 5126,
            "count" : 1633,
            "max" : [
                0.039696283638477325,
                0.007588707376271486,
                0.04304001107811928
            ],
            "min" : [
                -0.039696283638477325,
                -0.007588711101561785,
                -0.04309791326522827
            ],
            "type" : "VEC3"
        },
        {
            "bufferView" : 5,
            "componentType" : 5126,
            "count" : 1633,
            "type" : "VEC3"
        },
        {
            "bufferView" : 6,
            "componentType" : 5126,
            "count" : 1633,
            "type" : "VEC2"
        },
        {
            "bufferView" : 7,
            "componentType" : 5123,
            "count" : 2568,
            "type" : "SCALAR"
        },
        {
            "bufferView" : 8,
            "componentType" : 5126,
            "count" : 20,
            "max" : [
                0.1487303078174591,
                0.019682612270116806,
                0.16299337148666382
            ],
            "min" : [
                -0.1487303078174591,
                0.019682612270116806,
                -0.16267430782318115
            ],
            "type" : "VEC3"
        },
        {
            "bufferView" : 9,
            "componentType" : 5126,
            "count" : 20,
            "type" : "VEC3"
        },
        {
            "bufferView" : 10,
            "componentType" : 5126,
            "count" : 20,
            "type" : "VEC2"
        },
        {
            "bufferView" : 11,
            "componentType" : 5126,
            "count" : 1633,
            "max" : [
                0.039696283638477325,
                0.007588707376271486,
                0.04304001107811928
            ],
            "min" : [
                -0.039696283638477325,
                -0.007588711101561785,
                -0.04309791326522827
            ],
            "type" : "VEC3"
        },
        {
            "bufferView" : 12,
            "componentType" : 5126,
            "count" : 1633,
            "type" : "VEC3"
        },
        {
            "bufferView" : 13,
            "componentType" : 5126,
            "count" : 1633,
            "type" : "VEC2"
        }
    ],
    "bufferViews" : [
        {
            "buffer" : 0,
            "byteLength" : 240,
            "byteOffset" : 0
        },
        {
            "buffer" : 0,
            "byteLength" : 240,
            "byteOffset" : 240
        },
        {
            "buffer" : 0,
            "byteLength" : 160,
            "byteOffset" : 480
        },
        {
            "buffer" : 0,
            "byteLength" : 96,
            "byteOffset" : 640
        },
        {
            "buffer" : 0,
            "byteLength" : 19596,
            "byteOffset" : 736
        },
        {
            "buffer" : 0,
            "byteLength" : 19596,
            "byteOffset" : 20332
        },
        {
            "buffer" : 0,
            "byteLength" : 13064,
            "byteOffset" : 39928
        },
        {
            "buffer" : 0,
            "byteLength" : 5136,
            "byteOffset" : 52992
        },
        {
            "buffer" : 0,
            "byteLength" : 240,
            "byteOffset" : 58128
        },
        {
            "buffer" : 0,
            "byteLength" : 240,
            "byteOffset" : 58368
        },
        {
            "buffer" : 0,
            "byteLength" : 160,
            "byteOffset" : 58608
        },
        {
            "buffer" : 0,
            "byteLength" : 19596,
            "byteOffset" : 58768
        },
        {
            "buffer" : 0,
            "byteLength" : 19596,
            "byteOffset" : 78364
        },
        {
            "buffer" : 0,
            "byteLength" : 13064,
            "byteOffset" : 97960
        }
    ],
    "samplers" : [
        {
            "magFilter" : 9729,
            "minFilter" : 9987
        }
    ],
    "buffers" : [
        {
            "byteLength" : 111024,
            "uri" : "Prop_Camera_Action_tiles.bin"
        }
    ]
}
