{"buffers":[{"uri":"Prop_Mode_tiles.bin","byteLength":61056},{"byteLength":98904,"extensions":{"EXT_meshopt_compression":{"fallback":true}}}],"asset":{"version":"2.0","generator":"gltfpack 0.17"},"extensionsUsed":["EXT_meshopt_compression","KHR_texture_basisu"],"extensionsRequired":["EXT_meshopt_compression","KHR_texture_basisu"],"bufferViews":[{"buffer":1,"byteOffset":0,"byteLength":33276,"byteStride":12,"target":34962,"extensions":{"EXT_meshopt_compression":{"buffer":0,"byteOffset":0,"byteLength":26009,"byteStride":12,"mode":"ATTRIBUTES","count":2773}}},{"buffer":1,"byteOffset":33276,"byteLength":33276,"byteStride":12,"target":34962,"extensions":{"EXT_meshopt_compression":{"buffer":0,"byteOffset":26012,"byteLength":28783,"byteStride":12,"mode":"ATTRIBUTES","count":2773}}},{"buffer":1,"byteOffset":66552,"byteLength":960,"byteStride":8,"target":34962,"extensions":{"EXT_meshopt_compression":{"buffer":0,"byteOffset":54796,"byteLength":837,"byteStride":8,"mode":"ATTRIBUTES","count":120}}},{"buffer":1,"byteOffset":67512,"byteLength":31392,"target":34963,"extensions":{"EXT_meshopt_compression":{"buffer":0,"byteOffset":55636,"byteLength":5420,"byteStride":2,"mode":"TRIANGLES","count":15696}}}],"accessors":[{"bufferView":0,"byteOffset":0,"componentType":5126,"count":20,"type":"VEC3","min":[-0.148730308,0.0196826123,-0.162674308],"max":[0.148730308,0.0196826123,0.162993371]},{"bufferView":1,"byteOffset":0,"componentType":5126,"count":20,"type":"VEC3"},{"bufferView":2,"byteOffset":0,"componentType":5126,"count":20,"type":"VEC2"},{"bufferView":3,"byteOffset":0,"componentType":5123,"count":48,"type":"SCALAR"},{"bufferView":0,"byteOffset":240,"componentType":5126,"count":441,"type":"VEC3","min":[-0.0396962799,-0.00758871017,-0.0430979207],"max":[0.0396962799,0.00758870644,0.0430400111]},{"bufferView":1,"byteOffset":240,"componentType":5126,"count":441,"type":"VEC3"},{"bufferView":3,"byteOffset":96,"componentType":5123,"count":2568,"type":"SCALAR"},{"bufferView":0,"byteOffset":5532,"componentType":5126,"count":20,"type":"VEC3","min":[-0.148730308,0.0196826123,-0.162674308],"max":[0.148730308,0.0196826123,0.162993371]},{"bufferView":1,"byteOffset":5532,"componentType":5126,"count":20,"type":"VEC3"},{"bufferView":2,"byteOffset":160,"componentType":5126,"count":20,"type":"VEC2"},{"bufferView":3,"byteOffset":5232,"componentType":5123,"count":48,"type":"SCALAR"},{"bufferView":0,"byteOffset":5772,"componentType":5126,"count":442,"type":"VEC3","min":[-0.0396962836,-0.0075887111,-0.0430979133],"max":[0.0396962836,0.00758870738,0.0430400111]},{"bufferView":1,"byteOffset":5772,"componentType":5126,"count":442,"type":"VEC3"},{"bufferView":3,"byteOffset":5328,"componentType":5123,"count":2568,"type":"SCALAR"},{"bufferView":0,"byteOffset":11076,"componentType":5126,"count":20,"type":"VEC3","min":[-0.148730308,0.0196826123,-0.162674308],"max":[0.148730308,0.0196826123,0.162993371]},{"bufferView":1,"byteOffset":11076,"componentType":5126,"count":20,"type":"VEC3"},{"bufferView":2,"byteOffset":320,"componentType":5126,"count":20,"type":"VEC2"},{"bufferView":3,"byteOffset":10464,"componentType":5123,"count":48,"type":"SCALAR"},{"bufferView":0,"byteOffset":11316,"componentType":5126,"count":444,"type":"VEC3","min":[-0.0396962799,-0.00758870831,-0.0430979133],"max":[0.0396962799,0.00758870505,0.0430400111]},{"bufferView":1,"byteOffset":11316,"componentType":5126,"count":444,"type":"VEC3"},{"bufferView":3,"byteOffset":10560,"componentType":5123,"count":2568,"type":"SCALAR"},{"bufferView":0,"byteOffset":16644,"componentType":5126,"count":20,"type":"VEC3","min":[-0.148730308,0.0196826123,-0.162674308],"max":[0.148730308,0.0196826123,0.162993371]},{"bufferView":1,"byteOffset":16644,"componentType":5126,"count":20,"type":"VEC3"},{"bufferView":2,"byteOffset":480,"componentType":5126,"count":20,"type":"VEC2"},{"bufferView":3,"byteOffset":15696,"componentType":5123,"count":48,"type":"SCALAR"},{"bufferView":0,"byteOffset":16884,"componentType":5126,"count":444,"type":"VEC3","min":[-0.0396962799,-0.00758870924,-0.0430979095],"max":[0.0396962799,0.00758870505,0.0430400074]},{"bufferView":1,"byteOffset":16884,"componentType":5126,"count":444,"type":"VEC3"},{"bufferView":3,"byteOffset":15792,"componentType":5123,"count":2568,"type":"SCALAR"},{"bufferView":0,"byteOffset":22212,"componentType":5126,"count":20,"type":"VEC3","min":[-0.148730308,0.0196826123,-0.162674308],"max":[0.148730308,0.0196826123,0.162993371]},{"bufferView":1,"byteOffset":22212,"componentType":5126,"count":20,"type":"VEC3"},{"bufferView":2,"byteOffset":640,"componentType":5126,"count":20,"type":"VEC2"},{"bufferView":3,"byteOffset":20928,"componentType":5123,"count":48,"type":"SCALAR"},{"bufferView":0,"byteOffset":22452,"componentType":5126,"count":441,"type":"VEC3","min":[-0.0396962836,-0.00758871017,-0.043097917],"max":[0.0396962836,0.00758870598,0.0430400148]},{"bufferView":1,"byteOffset":22452,"componentType":5126,"count":441,"type":"VEC3"},{"bufferView":3,"byteOffset":21024,"componentType":5123,"count":2568,"type":"SCALAR"},{"bufferView":0,"byteOffset":27744,"componentType":5126,"count":20,"type":"VEC3","min":[-0.148730308,0.0196826123,-0.162674308],"max":[0.148730308,0.0196826123,0.162993371]},{"bufferView":1,"byteOffset":27744,"componentType":5126,"count":20,"type":"VEC3"},{"bufferView":2,"byteOffset":800,"componentType":5126,"count":20,"type":"VEC2"},{"bufferView":3,"byteOffset":26160,"componentType":5123,"count":48,"type":"SCALAR"},{"bufferView":0,"byteOffset":27984,"componentType":5126,"count":441,"type":"VEC3","min":[-0.0396962836,-0.00758871017,-0.0430979133],"max":[0.0396962836,0.00758870598,0.0430400111]},{"bufferView":1,"byteOffset":27984,"componentType":5126,"count":441,"type":"VEC3"},{"bufferView":3,"byteOffset":26256,"componentType":5123,"count":2568,"type":"SCALAR"}],"samplers":[{"magFilter":9729,"minFilter":9987}],"images":[{"uri":"wateringcan.ktx2"},{"uri":"trash.ktx2"},{"uri":"gear.ktx2"},{"uri":"plant.ktx2"},{"uri":"camera.ktx2"},{"uri":"explore.ktx2"}],"textures":[{"sampler":0,"extensions":{"KHR_texture_basisu":{"source":0}}},{"sampler":0,"extensions":{"KHR_texture_basisu":{"source":1}}},{"sampler":0,"extensions":{"KHR_texture_basisu":{"source":2}}},{"sampler":0,"extensions":{"KHR_texture_basisu":{"source":3}}},{"sampler":0,"extensions":{"KHR_texture_basisu":{"source":4}}},{"sampler":0,"extensions":{"KHR_texture_basisu":{"source":5}}}],"materials":[{"name":"Icon","pbrMetallicRoughness":{"baseColorTexture":{"index":0},"metallicFactor":0},"doubleSided":true},{"name":"Trim","pbrMetallicRoughness":{},"doubleSided":true},{"name":"Icon.001","pbrMetallicRoughness":{"baseColorTexture":{"index":1},"metallicFactor":0},"doubleSided":true},{"name":"Trim.003","pbrMetallicRoughness":{},"doubleSided":true},{"name":"Icon.002","pbrMetallicRoughness":{"baseColorTexture":{"index":2},"metallicFactor":0},"doubleSided":true},{"name":"Trim.004","pbrMetallicRoughness":{},"doubleSided":true},{"name":"Icon.003","pbrMetallicRoughness":{"baseColorTexture":{"index":3},"metallicFactor":0},"doubleSided":true},{"name":"Trim.005","pbrMetallicRoughness":{},"doubleSided":true},{"name":"Icon.005","pbrMetallicRoughness":{"baseColorTexture":{"index":4},"metallicFactor":0},"doubleSided":true},{"name":"Trim.007","pbrMetallicRoughness":{},"doubleSided":true},{"name":"Icon.006","pbrMetallicRoughness":{"baseColorTexture":{"index":5},"metallicFactor":0},"doubleSided":true},{"name":"Trim.008","pbrMetallicRoughness":{},"doubleSided":true}],"meshes":[{"primitives":[{"attributes":{"POSITION":0,"NORMAL":1,"TEXCOORD_0":2},"indices":3,"material":0}]},{"primitives":[{"attributes":{"POSITION":4,"NORMAL":5},"indices":6,"material":1}]},{"primitives":[{"attributes":{"POSITION":7,"NORMAL":8,"TEXCOORD_0":9},"indices":10,"material":2}]},{"primitives":[{"attributes":{"POSITION":11,"NORMAL":12},"indices":13,"material":3}]},{"primitives":[{"attributes":{"POSITION":14,"NORMAL":15,"TEXCOORD_0":16},"indices":17,"material":4}]},{"primitives":[{"attributes":{"POSITION":18,"NORMAL":19},"indices":20,"material":5}]},{"primitives":[{"attributes":{"POSITION":21,"NORMAL":22,"TEXCOORD_0":23},"indices":24,"material":6}]},{"primitives":[{"attributes":{"POSITION":25,"NORMAL":26},"indices":27,"material":7}]},{"primitives":[{"attributes":{"POSITION":28,"NORMAL":29,"TEXCOORD_0":30},"indices":31,"material":8}]},{"primitives":[{"attributes":{"POSITION":32,"NORMAL":33},"indices":34,"material":9}]},{"primitives":[{"attributes":{"POSITION":35,"NORMAL":36,"TEXCOORD_0":37},"indices":38,"material":10}]},{"primitives":[{"attributes":{"POSITION":39,"NORMAL":40},"indices":41,"material":11}]}],"nodes":[{"mesh":0},{"mesh":1},{"mesh":2},{"mesh":3},{"mesh":4},{"mesh":5},{"mesh":6},{"mesh":7},{"mesh":8},{"mesh":9},{"mesh":10},{"mesh":11},{"name":"watering_tile_face","scale":[0.25039947,0.250399679,0.25039956],"children":[0]},{"name":"watering_tile","translation":[0.0481803343,0.193847284,0.0519412272],"rotation":[0.787854254,-0.0715522245,-0.0932488516,0.604541659],"children":[12,1]},{"name":"picking_tile_face","scale":[0.250399649,0.250399798,0.250399649],"children":[2]},{"name":"picking_tile","translation":[0.134038299,0.151591092,0.0406187102],"rotation":[0.744317293,-0.210702807,-0.274593264,0.571134508],"children":[14,3]},{"name":"setting_tile_face","scale":[0.250399411,0.250399649,0.25039953],"children":[4]},{"name":"setting_tile","translation":[0.190677643,0.0762900189,0.0204418767],"rotation":[0.659649253,-0.338209838,-0.440763652,0.506166399],"children":[16,5]},{"name":"plant_tile_face","scale":[0.25039953,0.250399679,0.25039959],"children":[6]},{"name":"plant_tile","translation":[-0.0481803231,0.193847284,0.0519412272],"rotation":[0.787854254,0.0715522543,0.0932487026,0.604541659],"children":[18,7]},{"name":"camera_tile_face","scale":[0.2503995,0.250399709,0.250399619],"children":[8]},{"name":"camera_tile","translation":[-0.134038255,0.151591092,0.0406187475],"rotation":[0.744317532,0.210702822,0.274593383,0.57113421],"children":[20,9]},{"name":"explore_tile_face","scale":[0.2503995,0.250399739,0.25039959],"children":[10]},{"name":"explore_tile","translation":[-0.190677628,0.0762900636,0.0204418879],"rotation":[0.659649372,0.338209718,0.440763414,0.506166577],"children":[22,11]}],"scenes":[{"name":"Scene","nodes":[13,15,17,19,21,23]}],"scene":0}