{
  "asset": {
    "generator": "glTF-Transform v2.4.3",
    "version": "2.0"
  },
  "accessors": [
    {
      "type": "SCALAR",
      "componentType": 5123,
      "count": 3366,
      "bufferView": 0,
      "byteOffset": 0
    },
    {
      "type": "VEC4",
      "componentType": 5121,
      "count": 1091,
      "bufferView": 1,
      "byteOffset": 0
    },
    {
      "type": "VEC3",
      "componentType": 5122,
      "count": 1091,
      "max": [
        11473,
        32767,
        12537
      ],
      "min": [
        -11473,
        -32767,
        -12537
      ],
      "normalized": true,
      "bufferView": 1,
      "byteOffset": 4
    },
    {
      "type": "VEC3",
      "componentType": 5120,
      "count": 1091,
      "normalized": true,
      "bufferView": 1,
      "byteOffset": 12
    },
    {
      "type": "VEC2",
      "componentType": 5123,
      "count": 1091,
      "normalized": true,
      "bufferView": 1,
      "byteOffset": 16
    },
    {
      "type": "VEC4",
      "componentType": 5121,
      "count": 1091,
      "normalized": true,
      "bufferView": 1,
      "byteOffset": 20
    },
    {
      "type": "VEC4",
      "componentType": 5120,
      "count": 1091,
      "normalized": true,
      "bufferView": 1,
      "byteOffset": 24
    },
    {
      "type": "MAT4",
      "componentType": 5126,
      "count": 5,
      "bufferView": 2,
      "byteOffset": 0
    }
  ],
  "bufferViews": [
    {
      "buffer": 0,
      "byteOffset": 0,
      "byteLength": 6732,
      "target": 34963
    },
    {
      "buffer": 0,
      "byteOffset": 6732,
      "byteLength": 30548,
      "byteStride": 28,
      "target": 34962
    },
    {
      "buffer": 0,
      "byteOffset": 37280,
      "byteLength": 320
    }
  ],
  "samplers": [
    {
      "magFilter": 9729,
      "minFilter": 9987,
      "wrapS": 10497,
      "wrapT": 10497
    }
  ],
  "textures": [
    {
      "sampler": 0,
      "extensions": {
        "KHR_texture_basisu": {
          "source": 2
        }
      }
    },
    {
      "sampler": 0,
      "extensions": {
        "KHR_texture_basisu": {
          "source": 0
        }
      }
    },
    {
      "sampler": 0,
      "extensions": {
        "KHR_texture_basisu": {
          "source": 1
        }
      }
    }
  ],
  "images": [
    {
      "name": "Flora_Allium_NormalMap",
      "mimeType": "image/ktx2",
      "uri": "Flora_Allium_NormalMap.ktx2"
    },
    {
      "name": "Flora_Allium_occlusionRoughnessMetallic",
      "mimeType": "image/ktx2",
      "uri": "Flora_Allium_occlusionRoughnessMetallic.ktx2"
    },
    {
      "name": "Flora_Allium_BaseColor",
      "mimeType": "image/ktx2",
      "uri": "Flora_Allium_BaseColor.ktx2"
    }
  ],
  "buffers": [
    {
      "uri": "Flora_Allium.bin",
      "byteLength": 37600
    }
  ],
  "materials": [
    {
      "name": "SkinnedPlant_Flora_Allium",
      "alphaMode": "MASK",
      "alphaCutoff": 0.5,
      "pbrMetallicRoughness": {
        "baseColorTexture": {
          "index": 0
        },
        "metallicRoughnessTexture": {
          "index": 2
        }
      },
      "normalTexture": {
        "index": 1
      },
      "occlusionTexture": {
        "index": 2
      }
    }
  ],
  "meshes": [
    {
      "name": "Mesh.004",
      "primitives": [
        {
          "attributes": {
            "JOINTS_0": 1,
            "POSITION": 2,
            "NORMAL": 3,
            "TEXCOORD_0": 4,
            "WEIGHTS_0": 5,
            "TANGENT": 6
          },
          "mode": 4,
          "material": 0,
          "indices": 0
        }
      ]
    }
  ],
  "nodes": [
    {
      "name": "Root",
      "rotation": [
        0.006904890760779381,
        -6.175419743603314e-19,
        -6.175419226615432e-19,
        0.9999761581420898
      ]
    },
    {
      "name": "Leaves_01",
      "rotation": [
        0.016236135736107826,
        0.00017251849931199104,
        -0.010626769624650478,
        0.9998117089271545
      ]
    },
    {
      "name": "Leaves_02",
      "rotation": [
        0.01921711675822735,
        0.0001755185949150473,
        -0.009146854281425476,
        0.9997735023498535
      ]
    },
    {
      "name": "Flowers_01",
      "translation": [
        0.03559805080294609,
        0.49810367822647095,
        0.03263907879590988
      ],
      "rotation": [
        0.03279887139797211,
        -0.3071005642414093,
        -0.11652670800685883,
        0.9439465403556824
      ]
    },
    {
      "name": "Leaves_03",
      "rotation": [
        0.020682716742157936,
        0.0002773294982034713,
        -0.013505666516721249,
        0.99969482421875
      ]
    },
    {
      "name": "Flora_Allium",
      "mesh": 0,
      "skin": 0
    },
    {
      "name": "Flora_Allium_Armature",
      "children": [
        5,
        0,
        1,
        2,
        3,
        4
      ]
    }
  ],
  "skins": [
    {
      "name": "Flora_Allium_Armature",
      "inverseBindMatrices": 7,
      "joints": [
        0,
        1,
        2,
        3,
        4
      ]
    }
  ],
  "scenes": [
    {
      "name": "Scene",
      "nodes": [
        6
      ]
    }
  ],
  "scene": 0,
  "extensionsUsed": [
    "KHR_texture_basisu",
    "KHR_mesh_quantization"
  ],
  "extensionsRequired": [
    "KHR_texture_basisu",
    "KHR_mesh_quantization"
  ]
}