{
  "asset": {
    "generator": "glTF-Transform v2.4.3",
    "version": "2.0"
  },
  "accessors": [
    {
      "type": "SCALAR",
      "componentType": 5123,
      "count": 14265,
      "bufferView": 0,
      "byteOffset": 0
    },
    {
      "type": "VEC4",
      "componentType": 5121,
      "count": 5377,
      "bufferView": 1,
      "byteOffset": 0
    },
    {
      "type": "VEC3",
      "componentType": 5122,
      "count": 5377,
      "max": [
        31343,
        24599,
        32767
      ],
      "min": [
        -31343,
        -24599,
        -32767
      ],
      "normalized": true,
      "bufferView": 1,
      "byteOffset": 4
    },
    {
      "type": "VEC3",
      "componentType": 5120,
      "count": 5377,
      "normalized": true,
      "bufferView": 1,
      "byteOffset": 12
    },
    {
      "type": "VEC2",
      "componentType": 5123,
      "count": 5377,
      "normalized": true,
      "bufferView": 1,
      "byteOffset": 16
    },
    {
      "type": "VEC4",
      "componentType": 5121,
      "count": 5377,
      "normalized": true,
      "bufferView": 1,
      "byteOffset": 20
    },
    {
      "type": "VEC4",
      "componentType": 5120,
      "count": 5377,
      "normalized": true,
      "bufferView": 1,
      "byteOffset": 24
    },
    {
      "type": "MAT4",
      "componentType": 5126,
      "count": 5,
      "bufferView": 2,
      "byteOffset": 0
    }
  ],
  "bufferViews": [
    {
      "buffer": 0,
      "byteOffset": 0,
      "byteLength": 28532,
      "target": 34963
    },
    {
      "buffer": 0,
      "byteOffset": 28532,
      "byteLength": 150556,
      "byteStride": 28,
      "target": 34962
    },
    {
      "buffer": 0,
      "byteOffset": 179088,
      "byteLength": 320
    }
  ],
  "samplers": [
    {
      "magFilter": 9729,
      "minFilter": 9987,
      "wrapS": 10497,
      "wrapT": 10497
    }
  ],
  "textures": [
    {
      "sampler": 0,
      "extensions": {
        "KHR_texture_basisu": {
          "source": 1
        }
      }
    },
    {
      "sampler": 0,
      "extensions": {
        "KHR_texture_basisu": {
          "source": 0
        }
      }
    },
    {
      "sampler": 0,
      "extensions": {
        "KHR_texture_basisu": {
          "source": 2
        }
      }
    }
  ],
  "images": [
    {
      "name": "Flora_Rose_NormalMap",
      "mimeType": "image/ktx2",
      "uri": "Flora_Rose_NormalMap.ktx2"
    },
    {
      "name": "Flora_Rose_C_BaseColor",
      "mimeType": "image/ktx2",
      "uri": "Flora_Rose_C_BaseColor.ktx2"
    },
    {
      "name": "Flora_Rose_occlusionRoughnessMetallic",
      "mimeType": "image/ktx2",
      "uri": "Flora_Rose_occlusionRoughnessMetallic.ktx2"
    }
  ],
  "buffers": [
    {
      "uri": "Flora_Rose_C.bin",
      "byteLength": 179408
    }
  ],
  "materials": [
    {
      "name": "SkinnedPlant_Flora_Rose_C",
      "pbrMetallicRoughness": {
        "baseColorTexture": {
          "index": 0
        },
        "metallicRoughnessTexture": {
          "index": 2
        }
      },
      "normalTexture": {
        "index": 1
      }
    }
  ],
  "meshes": [
    {
      "name": "Cube.007",
      "primitives": [
        {
          "attributes": {
            "JOINTS_0": 1,
            "POSITION": 2,
            "NORMAL": 3,
            "TEXCOORD_0": 4,
            "WEIGHTS_0": 5,
            "TANGENT": 6
          },
          "mode": 4,
          "material": 0,
          "indices": 0
        }
      ]
    }
  ],
  "nodes": [
    {
      "name": "Root"
    },
    {
      "name": "Flowers_03",
      "translation": [
        -0.11711107194423676,
        0,
        0.06672726571559906
      ]
    },
    {
      "name": "Flowers_04",
      "translation": [
        0.16322220861911774,
        -4.656612873077393e-10,
        -0.1250249743461609
      ],
      "scale": [
        0.9627036452293396,
        0.9627036452293396,
        0.9627036452293396
      ]
    },
    {
      "name": "Flowers_01",
      "translation": [
        0.0922362357378006,
        0,
        0.047242917120456696
      ]
    },
    {
      "name": "Flowers_02",
      "translation": [
        -0.10634069889783859,
        0,
        -0.11784940958023071
      ]
    },
    {
      "name": "Flora_Rose_Geo",
      "mesh": 0,
      "skin": 0
    },
    {
      "name": "Flora_Rose",
      "children": [
        5,
        0,
        1,
        2,
        3,
        4
      ]
    }
  ],
  "skins": [
    {
      "name": "Flora_Rose",
      "inverseBindMatrices": 7,
      "joints": [
        0,
        1,
        2,
        3,
        4
      ]
    }
  ],
  "scenes": [
    {
      "name": "Scene",
      "nodes": [
        6
      ]
    }
  ],
  "scene": 0,
  "extensionsUsed": [
    "KHR_texture_basisu",
    "KHR_mesh_quantization"
  ],
  "extensionsRequired": [
    "KHR_texture_basisu",
    "KHR_mesh_quantization"
  ]
}