{
    "asset" : {
        "generator" : "Khronos glTF Blender I/O v1.8.19",
        "version" : "2.0"
    },
    "scene" : 0,
    "scenes" : [
        {
            "name" : "Scene",
            "nodes" : [
                0
            ]
        }
    ],
    "nodes" : [
        {
            "mesh" : 0,
            "name" : "Fauna_Butterfly_Orange"
        }
    ],
    "materials" : [
        {
            "doubleSided" : true,
            "name" : "Fauna_Butterfly_Orange",
            "normalTexture" : {
                "index" : 0
            },
            "occlusionTexture" : {
                "index" : 1
            },
            "pbrMetallicRoughness" : {
                "baseColorTexture" : {
                    "index" : 2
                },
                "metallicRoughnessTexture" : {
                    "index" : 1
                }
            }
        }
    ],
    "meshes" : [
        {
            "extras" : {
                "targetNames" : [
                    "Rest",
                    "Flap_Up",
                    "Flap_Down"
                ]
            },
            "name" : "Fauna_Butterfly",
            "primitives" : [
                {
                    "attributes" : {
                        "POSITION" : 0,
                        "NORMAL" : 1,
                        "TEXCOORD_0" : 2
                    },
                    "indices" : 3,
                    "material" : 0,
                    "targets" : [
                        {
                            "POSITION" : 4,
                            "NORMAL" : 5
                        },
                        {
                            "POSITION" : 6,
                            "NORMAL" : 7
                        },
                        {
                            "POSITION" : 8,
                            "NORMAL" : 9
                        }
                    ]
                }
            ],
            "weights" : [
                0,
                0,
                0
            ]
        }
    ],
    "textures" : [
        {
            "sampler" : 0,
            "source" : 0
        },
        {
            "sampler" : 0,
            "source" : 1
        },
        {
            "sampler" : 0,
            "source" : 2
        }
    ],
    "images" : [
        {
            "mimeType" : "image/png",
            "name" : "Fauna_Butterfly_NormalMap",
            "uri" : "Fauna_Butterfly_NormalMap.png"
        },
        {
            "mimeType" : "image/png",
            "name" : "Fauna_Butterfly_occlusionRoughnessMetallic",
            "uri" : "Fauna_Butterfly_occlusionRoughnessMetallic.png"
        },
        {
            "mimeType" : "image/png",
            "name" : "Fauna_Butterfly_Orange_BaseColor",
            "uri" : "Fauna_Butterfly_Orange_BaseColor.png"
        }
    ],
    "accessors" : [
        {
            "bufferView" : 0,
            "componentType" : 5126,
            "count" : 174,
            "max" : [
                0.05080006271600723,
                0.0027621996123343706,
                0.032992683351039886
            ],
            "min" : [
                -0.05080006271600723,
                -0.005969074089080095,
                -0.024494938552379608
            ],
            "type" : "VEC3"
        },
        {
            "bufferView" : 1,
            "componentType" : 5126,
            "count" : 174,
            "type" : "VEC3"
        },
        {
            "bufferView" : 2,
            "componentType" : 5126,
            "count" : 174,
            "type" : "VEC2"
        },
        {
            "bufferView" : 3,
            "componentType" : 5123,
            "count" : 564,
            "type" : "SCALAR"
        },
        {
            "bufferView" : 4,
            "componentType" : 5126,
            "count" : 174,
            "max" : [
                0.047147151082754135,
                0.050440989434719086,
                0.001594405621290207
            ],
            "min" : [
                -0.0437542125582695,
                -6.613577716052532e-05,
                -0.0028170356526970863
            ],
            "type" : "VEC3"
        },
        {
            "bufferView" : 5,
            "componentType" : 5126,
            "count" : 174,
            "type" : "VEC3"
        },
        {
            "bufferView" : 6,
            "componentType" : 5126,
            "count" : 174,
            "max" : [
                0.01549530029296875,
                0.04108574986457825,
                0.009638043120503426
            ],
            "min" : [
                -0.015655837953090668,
                -0.004804297350347042,
                -0.002064901404082775
            ],
            "type" : "VEC3"
        },
        {
            "bufferView" : 7,
            "componentType" : 5126,
            "count" : 174,
            "type" : "VEC3"
        },
        {
            "bufferView" : 8,
            "componentType" : 5126,
            "count" : 174,
            "max" : [
                0.041151512414216995,
                0.006713130511343479,
                0.006444886326789856
            ],
            "min" : [
                -0.04199123755097389,
                -0.051483675837516785,
                -0.0025709718465805054
            ],
            "type" : "VEC3"
        },
        {
            "bufferView" : 9,
            "componentType" : 5126,
            "count" : 174,
            "type" : "VEC3"
        }
    ],
    "bufferViews" : [
        {
            "buffer" : 0,
            "byteLength" : 2088,
            "byteOffset" : 0
        },
        {
            "buffer" : 0,
            "byteLength" : 2088,
            "byteOffset" : 2088
        },
        {
            "buffer" : 0,
            "byteLength" : 1392,
            "byteOffset" : 4176
        },
        {
            "buffer" : 0,
            "byteLength" : 1128,
            "byteOffset" : 5568
        },
        {
            "buffer" : 0,
            "byteLength" : 2088,
            "byteOffset" : 6696
        },
        {
            "buffer" : 0,
            "byteLength" : 2088,
            "byteOffset" : 8784
        },
        {
            "buffer" : 0,
            "byteLength" : 2088,
            "byteOffset" : 10872
        },
        {
            "buffer" : 0,
            "byteLength" : 2088,
            "byteOffset" : 12960
        },
        {
            "buffer" : 0,
            "byteLength" : 2088,
            "byteOffset" : 15048
        },
        {
            "buffer" : 0,
            "byteLength" : 2088,
            "byteOffset" : 17136
        }
    ],
    "samplers" : [
        {
            "magFilter" : 9729,
            "minFilter" : 9987
        }
    ],
    "buffers" : [
        {
            "byteLength" : 19224,
            "uri" : "Fauna_Butterfly_Orange.bin"
        }
    ]
}
