{
    "asset" : {
        "generator" : "Khronos glTF Blender I/O v1.8.19",
        "version" : "2.0"
    },
    "scene" : 0,
    "scenes" : [
        {
            "name" : "Scene",
            "nodes" : [
                0
            ]
        }
    ],
    "nodes" : [
        {
            "mesh" : 0,
            "name" : "Fauna_Seagull_Flying"
        }
    ],
    "materials" : [
        {
            "name" : "Fauna_Seagull",
            "normalTexture" : {
                "index" : 0
            },
            "occlusionTexture" : {
                "index" : 1
            },
            "pbrMetallicRoughness" : {
                "baseColorTexture" : {
                    "index" : 2
                },
                "metallicRoughnessTexture" : {
                    "index" : 1
                }
            }
        }
    ],
    "meshes" : [
        {
            "extras" : {
                "targetNames" : [
                    "Flap_Up",
                    "Flap_Down"
                ]
            },
            "name" : "Fauna_Seagull_Flying",
            "primitives" : [
                {
                    "attributes" : {
                        "POSITION" : 0,
                        "NORMAL" : 1,
                        "TEXCOORD_0" : 2
                    },
                    "indices" : 3,
                    "material" : 0,
                    "targets" : [
                        {
                            "POSITION" : 4,
                            "NORMAL" : 5
                        },
                        {
                            "POSITION" : 6,
                            "NORMAL" : 7
                        }
                    ]
                }
            ],
            "weights" : [
                0,
                0
            ]
        }
    ],
    "textures" : [
        {
            "sampler" : 0,
            "source" : 0
        },
        {
            "sampler" : 0,
            "source" : 1
        },
        {
            "sampler" : 0,
            "source" : 2
        }
    ],
    "images" : [
        {
            "mimeType" : "image/png",
            "name" : "Fauna_Seagull_NormalMap",
            "uri" : "Fauna_Seagull_NormalMap.png"
        },
        {
            "mimeType" : "image/png",
            "name" : "Fauna_Seagull_occlusionRoughnessMetallic",
            "uri" : "Fauna_Seagull_occlusionRoughnessMetallic.png"
        },
        {
            "mimeType" : "image/png",
            "name" : "Fauna_Seagull_BaseColor",
            "uri" : "Fauna_Seagull_BaseColor.png"
        }
    ],
    "accessors" : [
        {
            "bufferView" : 0,
            "componentType" : 5126,
            "count" : 426,
            "max" : [
                0.6449418663978577,
                0.47822239995002747,
                0.2624187469482422
            ],
            "min" : [
                -0.6318804025650024,
                0.3087526261806488,
                -0.3076443672180176
            ],
            "type" : "VEC3"
        },
        {
            "bufferView" : 1,
            "componentType" : 5126,
            "count" : 426,
            "type" : "VEC3"
        },
        {
            "bufferView" : 2,
            "componentType" : 5126,
            "count" : 426,
            "type" : "VEC2"
        },
        {
            "bufferView" : 3,
            "componentType" : 5123,
            "count" : 1656,
            "type" : "SCALAR"
        },
        {
            "bufferView" : 4,
            "componentType" : 5126,
            "count" : 426,
            "max" : [
                0.3445780873298645,
                0.6469025611877441,
                0.015238821506500244
            ],
            "min" : [
                -0.35672727227211,
                -0.031471818685531616,
                -0.035523224622011185
            ],
            "type" : "VEC3"
        },
        {
            "bufferView" : 5,
            "componentType" : 5126,
            "count" : 426,
            "type" : "VEC3"
        },
        {
            "bufferView" : 6,
            "componentType" : 5126,
            "count" : 426,
            "max" : [
                0.20389562845230103,
                0.004421204328536987,
                0.07595035433769226
            ],
            "min" : [
                -0.17559704184532166,
                -0.37556371092796326,
                -0.009174544364213943
            ],
            "type" : "VEC3"
        },
        {
            "bufferView" : 7,
            "componentType" : 5126,
            "count" : 426,
            "type" : "VEC3"
        }
    ],
    "bufferViews" : [
        {
            "buffer" : 0,
            "byteLength" : 5112,
            "byteOffset" : 0
        },
        {
            "buffer" : 0,
            "byteLength" : 5112,
            "byteOffset" : 5112
        },
        {
            "buffer" : 0,
            "byteLength" : 3408,
            "byteOffset" : 10224
        },
        {
            "buffer" : 0,
            "byteLength" : 3312,
            "byteOffset" : 13632
        },
        {
            "buffer" : 0,
            "byteLength" : 5112,
            "byteOffset" : 16944
        },
        {
            "buffer" : 0,
            "byteLength" : 5112,
            "byteOffset" : 22056
        },
        {
            "buffer" : 0,
            "byteLength" : 5112,
            "byteOffset" : 27168
        },
        {
            "buffer" : 0,
            "byteLength" : 5112,
            "byteOffset" : 32280
        }
    ],
    "samplers" : [
        {
            "magFilter" : 9729,
            "minFilter" : 9987
        }
    ],
    "buffers" : [
        {
            "byteLength" : 37392,
            "uri" : "Fauna_Seagull_Flying.bin"
        }
    ]
}
