{
    "asset" : {
        "generator" : "Khronos glTF Blender I/O v1.6.16",
        "version" : "2.0"
    },
    "scene" : 0,
    "scenes" : [
        {
            "extras" : {
                "b_painter_panels" : [
                    "BRUSH",
                    "COLOR",
                    "TEXTURE",
                    "STENCIL",
                    "LAYER"
                ],
                "b_painter_active_tex_brush_category" : "Brush Textures",
                "bc" : {
                    "snap" : {
                        "hit" : 0
                    }
                },
                "MM" : {
                    "revision" : "6b9140d97c1c89684282504c1b43358bc5142503"
                },
                "vr_landmarks" : [
                    {
                        "type" : 0
                    }
                ],
                "b_painter_brush" : 0,
                "b_painter_active_tex_brush" : "None",
                "b_painter_active_brush" : "Brush Mask",
                "glTF2ExportSettings" : {
                    "export_animations" : 0,
                    "export_extras" : 1,
                    "export_format" : "GLTF_SEPARATE",
                    "export_morph" : 0,
                    "export_skins" : 0
                }
            },
            "name" : "Scene",
            "nodes" : [
                0,
                1
            ]
        }
    ],
    "nodes" : [
        {
            "extras" : {
                "b_painter_active_material" : 0
            },
            "mesh" : 0,
            "name" : "Prop_Bench"
        },
        {
            "extras" : {
                "collider" : 1
            },
            "mesh" : 1,
            "name" : "collider"
        }
    ],
    "materials" : [
        {
            "extras" : {},
            "name" : "Prop_04_Bench",
            "normalTexture" : {
                "index" : 0
            },
            "occlusionTexture" : {
                "index" : 1
            },
            "pbrMetallicRoughness" : {
                "baseColorTexture" : {
                    "index" : 2
                },
                "metallicRoughnessTexture" : {
                    "index" : 1
                }
            }
        }
    ],
    "meshes" : [
        {
            "extras" : {},
            "name" : "Prop_Bench",
            "primitives" : [
                {
                    "attributes" : {
                        "POSITION" : 0,
                        "NORMAL" : 1,
                        "TEXCOORD_0" : 2
                    },
                    "indices" : 3,
                    "material" : 0
                }
            ]
        },
        {
            "name" : "collider",
            "primitives" : [
                {
                    "attributes" : {
                        "POSITION" : 4,
                        "NORMAL" : 5,
                        "TEXCOORD_0" : 6
                    },
                    "indices" : 7
                }
            ]
        }
    ],
    "textures" : [
        {
            "sampler" : 0,
            "source" : 0
        },
        {
            "sampler" : 0,
            "source" : 1
        },
        {
            "sampler" : 0,
            "source" : 2
        }
    ],
    "images" : [
        {
            "mimeType" : "image/png",
            "name" : "Prop_04_Bench_normal",
            "uri" : "Prop_04_Bench_normal.png"
        },
        {
            "mimeType" : "image/png",
            "name" : "Prop_04_Bench_occlusionRoughnessMetallic",
            "uri" : "Prop_04_Bench_occlusionRoughnessMetallic.png"
        },
        {
            "mimeType" : "image/png",
            "name" : "Prop_04_Bench_baseColor",
            "uri" : "Prop_04_Bench_baseColor.png"
        }
    ],
    "accessors" : [
        {
            "bufferView" : 0,
            "componentType" : 5126,
            "count" : 1554,
            "max" : [
                0.38511383533477783,
                0.9194267392158508,
                0.8765242099761963
            ],
            "min" : [
                -0.31841784715652466,
                -5.224491772537476e-08,
                -0.8765242695808411
            ],
            "type" : "VEC3"
        },
        {
            "bufferView" : 1,
            "componentType" : 5126,
            "count" : 1554,
            "type" : "VEC3"
        },
        {
            "bufferView" : 2,
            "componentType" : 5126,
            "count" : 1554,
            "type" : "VEC2"
        },
        {
            "bufferView" : 3,
            "componentType" : 5123,
            "count" : 5610,
            "type" : "SCALAR"
        },
        {
            "bufferView" : 4,
            "componentType" : 5126,
            "count" : 24,
            "max" : [
                0.4150885343551636,
                0.9304845333099365,
                0.8959721326828003
            ],
            "min" : [
                -0.3228374123573303,
                -0.004865407943725586,
                -0.8959721326828003
            ],
            "type" : "VEC3"
        },
        {
            "bufferView" : 5,
            "componentType" : 5126,
            "count" : 24,
            "type" : "VEC3"
        },
        {
            "bufferView" : 6,
            "componentType" : 5126,
            "count" : 24,
            "type" : "VEC2"
        },
        {
            "bufferView" : 7,
            "componentType" : 5123,
            "count" : 36,
            "type" : "SCALAR"
        }
    ],
    "bufferViews" : [
        {
            "buffer" : 0,
            "byteLength" : 18648,
            "byteOffset" : 0
        },
        {
            "buffer" : 0,
            "byteLength" : 18648,
            "byteOffset" : 18648
        },
        {
            "buffer" : 0,
            "byteLength" : 12432,
            "byteOffset" : 37296
        },
        {
            "buffer" : 0,
            "byteLength" : 11220,
            "byteOffset" : 49728
        },
        {
            "buffer" : 0,
            "byteLength" : 288,
            "byteOffset" : 60948
        },
        {
            "buffer" : 0,
            "byteLength" : 288,
            "byteOffset" : 61236
        },
        {
            "buffer" : 0,
            "byteLength" : 192,
            "byteOffset" : 61524
        },
        {
            "buffer" : 0,
            "byteLength" : 72,
            "byteOffset" : 61716
        }
    ],
    "samplers" : [
        {
            "magFilter" : 9729,
            "minFilter" : 9987
        }
    ],
    "buffers" : [
        {
            "byteLength" : 61788,
            "uri" : "Bench.bin"
        }
    ]
}
