{
    "asset" : {
        "generator" : "Khronos glTF Blender I/O v1.6.16",
        "version" : "2.0"
    },
    "scene" : 0,
    "scenes" : [
        {
            "extras" : {
                "b_painter_panels" : [
                    "BRUSH",
                    "COLOR",
                    "TEXTURE",
                    "STENCIL",
                    "LAYER"
                ],
                "bc" : {
                    "snap" : {
                        "hit" : 0
                    }
                },
                "MM" : {
                    "revision" : "6b9140d97c1c89684282504c1b43358bc5142503"
                },
                "M3" : {},
                "b_painter_active_tex_brush_category" : "Brush Textures",
                "zen_display" : {
                    "stacked" : 0,
                    "finished" : 0,
                    "stretch" : 0
                },
                "vr_landmarks" : [
                    {
                        "type" : 0
                    }
                ],
                "DM" : {
                    "revision" : "cc8df93aaa3044a610f0d75120f185790c4bb932",
                    "export_atlas_texture_channel_packCOL" : [
                        {
                            "avoid_update" : 0,
                            "name" : "ao_curv_height",
                            "red" : 2,
                            "green" : 3,
                            "blue" : 4
                        },
                        {
                            "avoid_update" : 0,
                            "name" : "masks",
                            "red" : 1,
                            "green" : 9,
                            "blue" : 10
                        }
                    ]
                },
                "b_painter_active_brush" : "Brush Mask",
                "b_painter_brush" : 0,
                "b_painter_active_tex_brush" : "None",
                "glTF2ExportSettings" : {
                    "export_animations" : 0,
                    "export_extras" : 1,
                    "export_format" : "GLTF_SEPARATE",
                    "use_visible" : 1
                }
            },
            "name" : "Scene",
            "nodes" : [
                0,
                1
            ]
        }
    ],
    "nodes" : [
        {
            "extras" : {
                "currentUVSet" : "map1"
            },
            "mesh" : 0,
            "name" : "Prop_Planter_Circular_01"
        },
        {
            "extras" : {
                "collider" : 1,
                "plantable" : 1,
                "teleport" : 1
            },
            "mesh" : 1,
            "name" : "Circular_1_Collider"
        }
    ],
    "materials" : [
        {
            "extras" : {},
            "name" : "M_Prop_Planter",
            "normalTexture" : {
                "index" : 0
            },
            "occlusionTexture" : {
                "index" : 1
            },
            "pbrMetallicRoughness" : {
                "baseColorTexture" : {
                    "index" : 2
                },
                "metallicRoughnessTexture" : {
                    "index" : 1
                }
            }
        }
    ],
    "meshes" : [
        {
            "extras" : {},
            "name" : "Prop_Planter_Circular_01.002",
            "primitives" : [
                {
                    "attributes" : {
                        "POSITION" : 0,
                        "NORMAL" : 1,
                        "TEXCOORD_0" : 2
                    },
                    "indices" : 3,
                    "material" : 0
                }
            ]
        },
        {
            "extras" : {},
            "name" : "Prop_Planter_Circular_01.003",
            "primitives" : [
                {
                    "attributes" : {
                        "POSITION" : 4,
                        "NORMAL" : 5,
                        "TEXCOORD_0" : 6
                    },
                    "indices" : 3
                }
            ]
        }
    ],
    "textures" : [
        {
            "sampler" : 0,
            "source" : 0
        },
        {
            "sampler" : 0,
            "source" : 1
        },
        {
            "sampler" : 0,
            "source" : 2
        }
    ],
    "images" : [
        {
            "mimeType" : "image/png",
            "name" : "T_Prop_Planter_N",
            "uri" : "T_Prop_Planter_N.png"
        },
        {
            "mimeType" : "image/png",
            "name" : "T_Prop_Planter_ORM",
            "uri" : "T_Prop_Planter_ORM.png"
        },
        {
            "mimeType" : "image/png",
            "name" : "T_Prop_Planter_D",
            "uri" : "T_Prop_Planter_D.png"
        }
    ],
    "accessors" : [
        {
            "bufferView" : 0,
            "componentType" : 5126,
            "count" : 437,
            "max" : [
                1.0860116481781006,
                0.4586113393306732,
                1.0860116481781006
            ],
            "min" : [
                -1.0860116481781006,
                -0.6118437051773071,
                -1.0860116481781006
            ],
            "type" : "VEC3"
        },
        {
            "bufferView" : 1,
            "componentType" : 5126,
            "count" : 437,
            "type" : "VEC3"
        },
        {
            "bufferView" : 2,
            "componentType" : 5126,
            "count" : 437,
            "type" : "VEC2"
        },
        {
            "bufferView" : 3,
            "componentType" : 5123,
            "count" : 1560,
            "type" : "SCALAR"
        },
        {
            "bufferView" : 4,
            "componentType" : 5126,
            "count" : 437,
            "max" : [
                1.0860116481781006,
                0.4586113393306732,
                1.0860116481781006
            ],
            "min" : [
                -1.0860116481781006,
                -0.6118437051773071,
                -1.0860116481781006
            ],
            "type" : "VEC3"
        },
        {
            "bufferView" : 5,
            "componentType" : 5126,
            "count" : 437,
            "type" : "VEC3"
        },
        {
            "bufferView" : 6,
            "componentType" : 5126,
            "count" : 437,
            "type" : "VEC2"
        }
    ],
    "bufferViews" : [
        {
            "buffer" : 0,
            "byteLength" : 5244,
            "byteOffset" : 0
        },
        {
            "buffer" : 0,
            "byteLength" : 5244,
            "byteOffset" : 5244
        },
        {
            "buffer" : 0,
            "byteLength" : 3496,
            "byteOffset" : 10488
        },
        {
            "buffer" : 0,
            "byteLength" : 3120,
            "byteOffset" : 13984
        },
        {
            "buffer" : 0,
            "byteLength" : 5244,
            "byteOffset" : 17104
        },
        {
            "buffer" : 0,
            "byteLength" : 5244,
            "byteOffset" : 22348
        },
        {
            "buffer" : 0,
            "byteLength" : 3496,
            "byteOffset" : 27592
        }
    ],
    "samplers" : [
        {
            "magFilter" : 9729,
            "minFilter" : 9987
        }
    ],
    "buffers" : [
        {
            "byteLength" : 31088,
            "uri" : "Prop_Planter_Circular_01.bin"
        }
    ]
}
