{
    "asset" : {
        "generator" : "Khronos glTF Blender I/O v1.6.16",
        "version" : "2.0"
    },
    "scene" : 0,
    "scenes" : [
        {
            "extras" : {
                "b_painter_panels" : [
                    "BRUSH",
                    "COLOR",
                    "TEXTURE",
                    "STENCIL",
                    "LAYER"
                ],
                "bc" : {
                    "snap" : {
                        "hit" : 0
                    }
                },
                "MM" : {
                    "revision" : "6b9140d97c1c89684282504c1b43358bc5142503"
                },
                "b_painter_active_tex_brush_category" : "Brush Textures",
                "vr_landmarks" : [
                    {
                        "type" : 0
                    }
                ],
                "b_painter_active_brush" : "Brush Mask",
                "b_painter_brush" : 0,
                "b_painter_active_tex_brush" : "None",
                "curvetools" : {
                    "CurveLength" : 1.6705399751663208
                },
                "zen_display" : {
                    "stacked" : 0,
                    "finished" : 0,
                    "stretch" : 0
                },
                "DM" : {
                    "revision" : "cc8df93aaa3044a610f0d75120f185790c4bb932",
                    "export_atlas_texture_channel_packCOL" : [
                        {
                            "avoid_update" : 0,
                            "name" : "ao_curv_height",
                            "red" : 2,
                            "green" : 3,
                            "blue" : 4
                        },
                        {
                            "avoid_update" : 0,
                            "name" : "masks",
                            "red" : 1,
                            "green" : 9,
                            "blue" : 10
                        }
                    ]
                },
                "glTF2ExportSettings" : {
                    "export_extras" : 1,
                    "export_format" : "GLTF_SEPARATE",
                    "use_visible" : 1
                }
            },
            "name" : "Scene",
            "nodes" : [
                0,
                1
            ]
        }
    ],
    "nodes" : [
        {
            "extras" : {},
            "mesh" : 0,
            "name" : "Prop_Fence_01_02"
        },
        {
            "extras" : {},
            "mesh" : 1,
            "name" : "Prop_Fence_01_03"
        }
    ],
    "materials" : [
        {
            "extras" : {},
            "name" : "Prop_Fence",
            "normalTexture" : {
                "index" : 0
            },
            "occlusionTexture" : {
                "index" : 1
            },
            "pbrMetallicRoughness" : {
                "baseColorTexture" : {
                    "index" : 2
                },
                "metallicRoughnessTexture" : {
                    "index" : 1
                }
            }
        }
    ],
    "meshes" : [
        {
            "name" : "BezierCurve.002",
            "primitives" : [
                {
                    "attributes" : {
                        "POSITION" : 0,
                        "NORMAL" : 1,
                        "TEXCOORD_0" : 2
                    },
                    "indices" : 3,
                    "material" : 0
                }
            ]
        },
        {
            "name" : "BezierCurve.003",
            "primitives" : [
                {
                    "attributes" : {
                        "POSITION" : 4,
                        "NORMAL" : 5,
                        "TEXCOORD_0" : 6
                    },
                    "indices" : 7,
                    "material" : 0
                }
            ]
        }
    ],
    "textures" : [
        {
            "sampler" : 0,
            "source" : 0
        },
        {
            "sampler" : 0,
            "source" : 1
        },
        {
            "sampler" : 0,
            "source" : 2
        }
    ],
    "images" : [
        {
            "mimeType" : "image/png",
            "name" : "Prop_Fence_NormalMap",
            "uri" : "Prop_Fence_NormalMap.png"
        },
        {
            "mimeType" : "image/png",
            "name" : "Prop_Fence_occlusionRoughnessMetallic",
            "uri" : "Prop_Fence_occlusionRoughnessMetallic.png"
        },
        {
            "mimeType" : "image/png",
            "name" : "Prop_Fence_BaseColor",
            "uri" : "Prop_Fence_BaseColor.png"
        }
    ],
    "accessors" : [
        {
            "bufferView" : 0,
            "componentType" : 5126,
            "count" : 325,
            "max" : [
                0.10010826587677002,
                1.03057062625885,
                0.10010829567909241
            ],
            "min" : [
                -0.10010826587677002,
                -1.630971091515221e-08,
                -0.10010829567909241
            ],
            "type" : "VEC3"
        },
        {
            "bufferView" : 1,
            "componentType" : 5126,
            "count" : 325,
            "type" : "VEC3"
        },
        {
            "bufferView" : 2,
            "componentType" : 5126,
            "count" : 325,
            "type" : "VEC2"
        },
        {
            "bufferView" : 3,
            "componentType" : 5123,
            "count" : 1398,
            "type" : "SCALAR"
        },
        {
            "bufferView" : 4,
            "componentType" : 5126,
            "count" : 664,
            "max" : [
                0.2618544101715088,
                1.03057062625885,
                0.10010829567909241
            ],
            "min" : [
                -0.10010826587677002,
                -1.630971091515221e-08,
                -0.10010829567909241
            ],
            "type" : "VEC3"
        },
        {
            "bufferView" : 5,
            "componentType" : 5126,
            "count" : 664,
            "type" : "VEC3"
        },
        {
            "bufferView" : 6,
            "componentType" : 5126,
            "count" : 664,
            "type" : "VEC2"
        },
        {
            "bufferView" : 7,
            "componentType" : 5123,
            "count" : 3030,
            "type" : "SCALAR"
        }
    ],
    "bufferViews" : [
        {
            "buffer" : 0,
            "byteLength" : 3900,
            "byteOffset" : 0
        },
        {
            "buffer" : 0,
            "byteLength" : 3900,
            "byteOffset" : 3900
        },
        {
            "buffer" : 0,
            "byteLength" : 2600,
            "byteOffset" : 7800
        },
        {
            "buffer" : 0,
            "byteLength" : 2796,
            "byteOffset" : 10400
        },
        {
            "buffer" : 0,
            "byteLength" : 7968,
            "byteOffset" : 13196
        },
        {
            "buffer" : 0,
            "byteLength" : 7968,
            "byteOffset" : 21164
        },
        {
            "buffer" : 0,
            "byteLength" : 5312,
            "byteOffset" : 29132
        },
        {
            "buffer" : 0,
            "byteLength" : 6060,
            "byteOffset" : 34444
        }
    ],
    "samplers" : [
        {
            "magFilter" : 9729,
            "minFilter" : 9987
        }
    ],
    "buffers" : [
        {
            "byteLength" : 40504,
            "uri" : "Prop_Fence_01_02.bin"
        }
    ]
}
