{
    "asset" : {
        "generator" : "Khronos glTF Blender I/O v1.6.16",
        "version" : "2.0"
    },
    "scene" : 0,
    "scenes" : [
        {
            "extras" : {
                "b_painter_panels" : [
                    "BRUSH",
                    "COLOR",
                    "TEXTURE",
                    "STENCIL",
                    "LAYER"
                ],
                "bc" : {
                    "snap" : {
                        "hit" : 0
                    }
                },
                "MM" : {
                    "revision" : "6b9140d97c1c89684282504c1b43358bc5142503"
                },
                "M3" : {},
                "b_painter_active_tex_brush_category" : "Brush Textures",
                "zen_display" : {
                    "stacked" : 0,
                    "finished" : 0,
                    "stretch" : 0
                },
                "vr_landmarks" : [
                    {
                        "type" : 0
                    }
                ],
                "DM" : {
                    "revision" : "cc8df93aaa3044a610f0d75120f185790c4bb932",
                    "export_atlas_texture_channel_packCOL" : [
                        {
                            "avoid_update" : 0,
                            "name" : "ao_curv_height",
                            "red" : 2,
                            "green" : 3,
                            "blue" : 4
                        },
                        {
                            "avoid_update" : 0,
                            "name" : "masks",
                            "red" : 1,
                            "green" : 9,
                            "blue" : 10
                        }
                    ]
                },
                "b_painter_active_brush" : "Brush Mask",
                "b_painter_brush" : 0,
                "b_painter_active_tex_brush" : "None",
                "glTF2ExportSettings" : {
                    "export_animations" : 0,
                    "export_extras" : 1,
                    "export_format" : "GLTF_SEPARATE",
                    "use_visible" : 1
                }
            },
            "name" : "Scene",
            "nodes" : [
                0,
                1
            ]
        }
    ],
    "nodes" : [
        {
            "extras" : {
                "currentUVSet" : "map1"
            },
            "mesh" : 0,
            "name" : "Prop_Planter_Long03"
        },
        {
            "extras" : {
                "collider" : 1,
                "plantable" : 1,
                "teleport" : 1
            },
            "mesh" : 1,
            "name" : "Long_3_Collider"
        }
    ],
    "materials" : [
        {
            "extras" : {},
            "name" : "M_Prop_Planter",
            "normalTexture" : {
                "index" : 0
            },
            "occlusionTexture" : {
                "index" : 1
            },
            "pbrMetallicRoughness" : {
                "baseColorTexture" : {
                    "index" : 2
                },
                "metallicRoughnessTexture" : {
                    "index" : 1
                }
            }
        }
    ],
    "meshes" : [
        {
            "extras" : {},
            "name" : "Prop_Planter_Long.002",
            "primitives" : [
                {
                    "attributes" : {
                        "POSITION" : 0,
                        "NORMAL" : 1,
                        "TEXCOORD_0" : 2
                    },
                    "indices" : 3,
                    "material" : 0
                }
            ]
        },
        {
            "extras" : {},
            "name" : "Prop_Planter_Long.004",
            "primitives" : [
                {
                    "attributes" : {
                        "POSITION" : 4,
                        "NORMAL" : 5,
                        "TEXCOORD_0" : 6
                    },
                    "indices" : 3
                }
            ]
        }
    ],
    "textures" : [
        {
            "sampler" : 0,
            "source" : 0
        },
        {
            "sampler" : 0,
            "source" : 1
        },
        {
            "sampler" : 0,
            "source" : 2
        }
    ],
    "images" : [
        {
            "mimeType" : "image/png",
            "name" : "T_Prop_Planter_N",
            "uri" : "T_Prop_Planter_N.png"
        },
        {
            "mimeType" : "image/png",
            "name" : "T_Prop_Planter_ORM",
            "uri" : "T_Prop_Planter_ORM.png"
        },
        {
            "mimeType" : "image/png",
            "name" : "T_Prop_Planter_D",
            "uri" : "T_Prop_Planter_D.png"
        }
    ],
    "accessors" : [
        {
            "bufferView" : 0,
            "componentType" : 5126,
            "count" : 1116,
            "max" : [
                6.693592071533203,
                0.45828473567962646,
                1.1924009323120117
            ],
            "min" : [
                -6.693592071533203,
                -0.7218805551528931,
                -0.845556914806366
            ],
            "type" : "VEC3"
        },
        {
            "bufferView" : 1,
            "componentType" : 5126,
            "count" : 1116,
            "type" : "VEC3"
        },
        {
            "bufferView" : 2,
            "componentType" : 5126,
            "count" : 1116,
            "type" : "VEC2"
        },
        {
            "bufferView" : 3,
            "componentType" : 5123,
            "count" : 4698,
            "type" : "SCALAR"
        },
        {
            "bufferView" : 4,
            "componentType" : 5126,
            "count" : 1116,
            "max" : [
                6.693592071533203,
                0.45828473567962646,
                1.1924009323120117
            ],
            "min" : [
                -6.693592071533203,
                -0.7218805551528931,
                -0.845556914806366
            ],
            "type" : "VEC3"
        },
        {
            "bufferView" : 5,
            "componentType" : 5126,
            "count" : 1116,
            "type" : "VEC3"
        },
        {
            "bufferView" : 6,
            "componentType" : 5126,
            "count" : 1116,
            "type" : "VEC2"
        }
    ],
    "bufferViews" : [
        {
            "buffer" : 0,
            "byteLength" : 13392,
            "byteOffset" : 0
        },
        {
            "buffer" : 0,
            "byteLength" : 13392,
            "byteOffset" : 13392
        },
        {
            "buffer" : 0,
            "byteLength" : 8928,
            "byteOffset" : 26784
        },
        {
            "buffer" : 0,
            "byteLength" : 9396,
            "byteOffset" : 35712
        },
        {
            "buffer" : 0,
            "byteLength" : 13392,
            "byteOffset" : 45108
        },
        {
            "buffer" : 0,
            "byteLength" : 13392,
            "byteOffset" : 58500
        },
        {
            "buffer" : 0,
            "byteLength" : 8928,
            "byteOffset" : 71892
        }
    ],
    "samplers" : [
        {
            "magFilter" : 9729,
            "minFilter" : 9987
        }
    ],
    "buffers" : [
        {
            "byteLength" : 80820,
            "uri" : "Prop_Planter_Long03.bin"
        }
    ]
}
