{
    "asset" : {
        "generator" : "Khronos glTF Blender I/O v1.8.19",
        "version" : "2.0"
    },
    "scene" : 0,
    "scenes" : [
        {
            "name" : "Scene",
            "nodes" : [
                0,
                1
            ]
        }
    ],
    "nodes" : [
        {
            "mesh" : 0,
            "name" : "Sky_Clouds.001"
        },
        {
            "mesh" : 1,
            "name" : "Sky_Base.001"
        }
    ],
    "materials" : [
        {
            "alphaMode" : "BLEND",
            "name" : "M_Sky_Clouds.001",
            "pbrMetallicRoughness" : {
                "baseColorTexture" : {
                    "index" : 0
                },
                "metallicFactor" : 0,
                "roughnessFactor" : 0.5
            }
        },
        {
            "name" : "M_Sky_Base.001",
            "pbrMetallicRoughness" : {
                "baseColorTexture" : {
                    "index" : 1
                },
                "metallicFactor" : 0
            }
        }
    ],
    "meshes" : [
        {
            "name" : "Sphere.002",
            "primitives" : [
                {
                    "attributes" : {
                        "POSITION" : 0,
                        "TEXCOORD_0" : 1
                    },
                    "indices" : 2,
                    "material" : 0
                }
            ]
        },
        {
            "name" : "Sphere.003",
            "primitives" : [
                {
                    "attributes" : {
                        "POSITION" : 3,
                        "TEXCOORD_0" : 4
                    },
                    "indices" : 2,
                    "material" : 1
                }
            ]
        }
    ],
    "textures" : [
        {
            "sampler" : 0,
            "source" : 0
        },
        {
            "sampler" : 0,
            "source" : 1
        }
    ],
    "images" : [
        {
            "mimeType" : "image/png",
            "name" : "T_Sky_Clouds",
            "uri" : "T_Sky_Clouds.png"
        },
        {
            "mimeType" : "image/png",
            "name" : "T_Sky_Base",
            "uri" : "T_Sky_Base.png"
        }
    ],
    "accessors" : [
        {
            "bufferView" : 0,
            "componentType" : 5126,
            "count" : 559,
            "max" : [
                298.63720703125,
                298.6373291015625,
                298.63714599609375
            ],
            "min" : [
                -298.6370544433594,
                -298.6373291015625,
                -298.6369323730469
            ],
            "type" : "VEC3"
        },
        {
            "bufferView" : 1,
            "componentType" : 5126,
            "count" : 559,
            "type" : "VEC2"
        },
        {
            "bufferView" : 2,
            "componentType" : 5123,
            "count" : 2880,
            "type" : "SCALAR"
        },
        {
            "bufferView" : 3,
            "componentType" : 5126,
            "count" : 559,
            "max" : [
                298.63720703125,
                298.6373291015625,
                298.63714599609375
            ],
            "min" : [
                -298.6370544433594,
                -298.6373291015625,
                -298.6369323730469
            ],
            "type" : "VEC3"
        },
        {
            "bufferView" : 4,
            "componentType" : 5126,
            "count" : 559,
            "type" : "VEC2"
        }
    ],
    "bufferViews" : [
        {
            "buffer" : 0,
            "byteLength" : 6708,
            "byteOffset" : 0
        },
        {
            "buffer" : 0,
            "byteLength" : 4472,
            "byteOffset" : 6708
        },
        {
            "buffer" : 0,
            "byteLength" : 5760,
            "byteOffset" : 11180
        },
        {
            "buffer" : 0,
            "byteLength" : 6708,
            "byteOffset" : 16940
        },
        {
            "buffer" : 0,
            "byteLength" : 4472,
            "byteOffset" : 23648
        }
    ],
    "samplers" : [
        {
            "magFilter" : 9729,
            "minFilter" : 9987
        }
    ],
    "buffers" : [
        {
            "byteLength" : 28120,
            "uri" : "Prop_Sky.bin"
        }
    ]
}
