{
    "asset" : {
        "generator" : "Khronos glTF Blender I/O v1.6.16",
        "version" : "2.0"
    },
    "scene" : 0,
    "scenes" : [
        {
            "extras" : {
                "b_painter_panels" : [
                    "BRUSH",
                    "COLOR",
                    "TEXTURE",
                    "STENCIL",
                    "LAYER"
                ],
                "bc" : {
                    "snap" : {
                        "hit" : 0
                    }
                },
                "MM" : {
                    "revision" : "6b9140d97c1c89684282504c1b43358bc5142503"
                },
                "b_painter_active_tex_brush_category" : "Brush Textures",
                "vr_landmarks" : [
                    {
                        "type" : 0
                    }
                ],
                "b_painter_active_brush" : "Brush Mask",
                "b_painter_brush" : 0,
                "b_painter_active_tex_brush" : "None",
                "curvetools" : {
                    "CurveLength" : 1.6705399751663208
                },
                "zen_display" : {
                    "stacked" : 0,
                    "finished" : 0,
                    "stretch" : 0
                },
                "DM" : {
                    "revision" : "cc8df93aaa3044a610f0d75120f185790c4bb932",
                    "export_atlas_texture_channel_packCOL" : [
                        {
                            "avoid_update" : 0,
                            "name" : "ao_curv_height",
                            "red" : 2,
                            "green" : 3,
                            "blue" : 4
                        },
                        {
                            "avoid_update" : 0,
                            "name" : "masks",
                            "red" : 1,
                            "green" : 9,
                            "blue" : 10
                        }
                    ]
                },
                "M3" : {
                    "avoid_update" : 0,
                    "shading_light" : 0,
                    "use_flat_shadows" : 0
                },
                "glTF2ExportSettings" : {
                    "export_animations" : 0,
                    "export_extras" : 1,
                    "export_format" : "GLTF_SEPARATE",
                    "use_visible" : 1
                }
            },
            "name" : "Scene",
            "nodes" : [
                0,
                1
            ]
        }
    ],
    "nodes" : [
        {
            "extras" : {
                "b_painter_active_material" : 0
            },
            "mesh" : 0,
            "name" : "Prop_Gate"
        },
        {
            "extras" : {
                "collider" : 1
            },
            "mesh" : 1,
            "name" : "Gate_Collider",
            "translation" : [
                0.0032463748939335346,
                1.7430081367492676,
                -0.0005378422210924327
            ]
        }
    ],
    "materials" : [
        {
            "extras" : {},
            "name" : "Prop_Gate",
            "normalTexture" : {
                "index" : 0
            },
            "occlusionTexture" : {
                "index" : 1
            },
            "pbrMetallicRoughness" : {
                "baseColorTexture" : {
                    "index" : 2
                },
                "metallicRoughnessTexture" : {
                    "index" : 1
                }
            }
        }
    ],
    "meshes" : [
        {
            "name" : "Prop_Gate.028",
            "primitives" : [
                {
                    "attributes" : {
                        "POSITION" : 0,
                        "NORMAL" : 1,
                        "TEXCOORD_0" : 2
                    },
                    "indices" : 3,
                    "material" : 0
                }
            ]
        },
        {
            "name" : "Cube",
            "primitives" : [
                {
                    "attributes" : {
                        "POSITION" : 4,
                        "NORMAL" : 5,
                        "TEXCOORD_0" : 6
                    },
                    "indices" : 7
                }
            ]
        }
    ],
    "textures" : [
        {
            "sampler" : 0,
            "source" : 0
        },
        {
            "sampler" : 0,
            "source" : 1
        },
        {
            "sampler" : 0,
            "source" : 2
        }
    ],
    "images" : [
        {
            "mimeType" : "image/png",
            "name" : "Prop_Gate_NormalMap",
            "uri" : "Prop_Gate_NormalMap.png"
        },
        {
            "mimeType" : "image/png",
            "name" : "Prop_Gate_occlusionRoughnessMetallic",
            "uri" : "Prop_Gate_occlusionRoughnessMetallic.png"
        },
        {
            "mimeType" : "image/png",
            "name" : "Prop_Gate_BaseColor",
            "uri" : "Prop_Gate_BaseColor.png"
        }
    ],
    "accessors" : [
        {
            "bufferView" : 0,
            "componentType" : 5126,
            "count" : 3516,
            "max" : [
                1.2073718309402466,
                2.425431251525879,
                0.7159591913223267
            ],
            "min" : [
                -1.2073718309402466,
                7.945232738393315e-08,
                -0.4426872730255127
            ],
            "type" : "VEC3"
        },
        {
            "bufferView" : 1,
            "componentType" : 5126,
            "count" : 3516,
            "type" : "VEC3"
        },
        {
            "bufferView" : 2,
            "componentType" : 5126,
            "count" : 3516,
            "type" : "VEC2"
        },
        {
            "bufferView" : 3,
            "componentType" : 5123,
            "count" : 12960,
            "type" : "SCALAR"
        },
        {
            "bufferView" : 4,
            "componentType" : 5126,
            "count" : 24,
            "max" : [
                1,
                0.7142245769500732,
                0.7062864899635315
            ],
            "min" : [
                -1,
                -1.738252878189087,
                -0.4681403636932373
            ],
            "type" : "VEC3"
        },
        {
            "bufferView" : 5,
            "componentType" : 5126,
            "count" : 24,
            "type" : "VEC3"
        },
        {
            "bufferView" : 6,
            "componentType" : 5126,
            "count" : 24,
            "type" : "VEC2"
        },
        {
            "bufferView" : 7,
            "componentType" : 5123,
            "count" : 36,
            "type" : "SCALAR"
        }
    ],
    "bufferViews" : [
        {
            "buffer" : 0,
            "byteLength" : 42192,
            "byteOffset" : 0
        },
        {
            "buffer" : 0,
            "byteLength" : 42192,
            "byteOffset" : 42192
        },
        {
            "buffer" : 0,
            "byteLength" : 28128,
            "byteOffset" : 84384
        },
        {
            "buffer" : 0,
            "byteLength" : 25920,
            "byteOffset" : 112512
        },
        {
            "buffer" : 0,
            "byteLength" : 288,
            "byteOffset" : 138432
        },
        {
            "buffer" : 0,
            "byteLength" : 288,
            "byteOffset" : 138720
        },
        {
            "buffer" : 0,
            "byteLength" : 192,
            "byteOffset" : 139008
        },
        {
            "buffer" : 0,
            "byteLength" : 72,
            "byteOffset" : 139200
        }
    ],
    "samplers" : [
        {
            "magFilter" : 9729,
            "minFilter" : 9987
        }
    ],
    "buffers" : [
        {
            "byteLength" : 139272,
            "uri" : "Prop_Gate.bin"
        }
    ]
}
