{
    "asset" : {
        "generator" : "Khronos glTF Blender I/O v1.6.16",
        "version" : "2.0"
    },
    "scene" : 0,
    "scenes" : [
        {
            "name" : "Scene",
            "nodes" : [
                0,
                1
            ]
        }
    ],
    "nodes" : [
        {
            "mesh" : 0,
            "name" : "Prop_Watering_Can"
        },
        {
            "name" : "water_origin",
            "translation" : [
                -0.5049547553062439,
                0.5374516844749451,
                0
            ]
        }
    ],
    "materials" : [
        {
            "doubleSided" : true,
            "name" : "Prop_Watering_Can",
            "normalTexture" : {
                "index" : 0
            },
            "occlusionTexture" : {
                "index" : 1
            },
            "pbrMetallicRoughness" : {
                "baseColorTexture" : {
                    "index" : 2
                },
                "metallicRoughnessTexture" : {
                    "index" : 1
                }
            }
        }
    ],
    "meshes" : [
        {
            "name" : "Mesh.003",
            "primitives" : [
                {
                    "attributes" : {
                        "POSITION" : 0,
                        "NORMAL" : 1,
                        "TEXCOORD_0" : 2
                    },
                    "indices" : 3,
                    "material" : 0
                }
            ]
        }
    ],
    "textures" : [
        {
            "sampler" : 0,
            "source" : 0
        },
        {
            "sampler" : 0,
            "source" : 1
        },
        {
            "sampler" : 0,
            "source" : 2
        }
    ],
    "images" : [
        {
            "mimeType" : "image/png",
            "name" : "Prop_Watering_Can_NormalMap",
            "uri" : "Prop_Watering_Can_NormalMap.png"
        },
        {
            "mimeType" : "image/png",
            "name" : "Prop_Watering_Can_occlusionRoughnessMetallic",
            "uri" : "Prop_Watering_Can_occlusionRoughnessMetallic.png"
        },
        {
            "mimeType" : "image/png",
            "name" : "Prop_Watering_Can_BaseColor",
            "uri" : "Prop_Watering_Can_BaseColor.png"
        }
    ],
    "accessors" : [
        {
            "bufferView" : 0,
            "componentType" : 5126,
            "count" : 2907,
            "max" : [
                0.32713809609413147,
                0.6233223676681519,
                0.16772422194480896
            ],
            "min" : [
                -0.5254641771316528,
                -8.635529624712035e-09,
                -0.1677241027355194
            ],
            "type" : "VEC3"
        },
        {
            "bufferView" : 1,
            "componentType" : 5126,
            "count" : 2907,
            "type" : "VEC3"
        },
        {
            "bufferView" : 2,
            "componentType" : 5126,
            "count" : 2907,
            "type" : "VEC2"
        },
        {
            "bufferView" : 3,
            "componentType" : 5123,
            "count" : 14760,
            "type" : "SCALAR"
        }
    ],
    "bufferViews" : [
        {
            "buffer" : 0,
            "byteLength" : 34884,
            "byteOffset" : 0
        },
        {
            "buffer" : 0,
            "byteLength" : 34884,
            "byteOffset" : 34884
        },
        {
            "buffer" : 0,
            "byteLength" : 23256,
            "byteOffset" : 69768
        },
        {
            "buffer" : 0,
            "byteLength" : 29520,
            "byteOffset" : 93024
        }
    ],
    "samplers" : [
        {
            "magFilter" : 9729,
            "minFilter" : 9987
        }
    ],
    "buffers" : [
        {
            "byteLength" : 122544,
            "uri" : "Prop_Watering_Can.bin"
        }
    ]
}
