{
    "asset" : {
        "generator" : "Khronos glTF Blender I/O v1.8.19",
        "version" : "2.0"
    },
    "scene" : 0,
    "scenes" : [
        {
            "extras" : {
                "DM" : {
                    "revision" : "df474acfd29b8014bff4dc0b249ca05ef2b1a013",
                    "export_atlas_texture_channel_packCOL" : [
                        {
                            "avoid_update" : 0,
                            "name" : "ao_curv_height",
                            "red" : 2,
                            "green" : 3,
                            "blue" : 4
                        },
                        {
                            "avoid_update" : 0,
                            "name" : "masks",
                            "red" : 1,
                            "green" : 9,
                            "blue" : 10
                        }
                    ]
                },
                "MM" : {
                    "revision" : "57ae851e9b0759eef65e265c8eba239ba8391f68"
                },
                "gaf_props" : {
                    "IsShowingRadius" : 0,
                    "IsShowingLabel" : 0
                },
                "zen_display" : {
                    "stacked" : 0,
                    "finished" : 0,
                    "stretch" : 0
                },
                "zen_sets_object_list" : [
                    {
                        "level" : 0,
                        "layer_name" : "zen_sets_object_layer_50d5a559-ee8e-4a23-a6e2-ea1162b535db",
                        "has_children" : 1,
                        "collection" : null,
                        "parent_collection" : null,
                        "parent_idx" : -1
                    },
                    {
                        "level" : 1,
                        "layer_name" : "zen_sets_object_layer_4b894c6f-0be3-4f77-8a26-17854603f73a",
                        "has_children" : 0,
                        "collection" : {
                            "name" : "Collection",
                            "type" : "Collection"
                        },
                        "parent_collection" : null,
                        "parent_idx" : 0
                    }
                ],
                "zsts_color_palette" : {
                    "palette" : {}
                },
                "ZBBQ_UserHasDisabledColoredEdgesAtLeastOnce" : 0,
                "bc" : {
                    "snap" : {
                        "hit" : 0
                    }
                },
                "zen_sets_object_list_index" : 1,
                "zen_sets_active_mode" : 2,
                "zen_sets_last_face_mode" : "face",
                "ZBBQ_PresetsIncluded" : {
                    "title" : "Default cm",
                    "unitSystem" : 1,
                    "bevelPresetsIndex" : 0,
                    "bevelPresets" : [
                        {
                            "unitSystem" : 1,
                            "radius" : 1.0,
                            "units" : 1,
                            "colorId" : "ColorA",
                            "color" : [
                                1.0,
                                0.11100621521472931,
                                0.16977672278881073
                            ]
                        },
                        {
                            "unitSystem" : 1,
                            "radius" : 2.0,
                            "units" : 1,
                            "colorId" : "ColorB",
                            "color" : [
                                0.002567382762208581,
                                0.43090468645095825,
                                0.019824344664812088
                            ]
                        },
                        {
                            "unitSystem" : 1,
                            "radius" : 3.0,
                            "units" : 1,
                            "colorId" : "ColorC",
                            "color" : [
                                0.02643318846821785,
                                0.21164964139461517,
                                0.6249921321868896
                            ]
                        },
                        {
                            "unitSystem" : 1,
                            "radius" : 5.0,
                            "units" : 1,
                            "colorId" : "ColorD",
                            "color" : [
                                0.9321982860565186,
                                0.7369347810745239,
                                0.015988152474164963
                            ]
                        },
                        {
                            "unitSystem" : 1,
                            "radius" : 7.0,
                            "units" : 1,
                            "colorId" : "ColorE",
                            "color" : [
                                0.11100621521472931,
                                0.6797053217887878,
                                1.0
                            ]
                        },
                        {
                            "unitSystem" : 1,
                            "radius" : 10.0,
                            "units" : 1,
                            "colorId" : "ColorF",
                            "color" : [
                                0.708004355430603,
                                0.10335222631692886,
                                1.0
                            ]
                        }
                    ]
                },
                "ZBBQ_HasPresetsIncluded" : 1,
                "uvpm3_props" : {},
                "ZBBQ_ZenBBQOverlayShow" : 0,
                "zen_sets_last_edge_mode" : "edge",
                "zen_sets_last_vert_mode" : "vert",
                "b_painter_panels" : [
                    "BRUSH",
                    "COLOR",
                    "TEXTURE",
                    "STENCIL",
                    "LAYER"
                ],
                "b_painter_active_tex_brush_category" : "Brush Textures",
                "kitops" : {},
                "M3" : {},
                "vr_landmarks" : [
                    {
                        "type" : 0
                    }
                ],
                "b_painter_active_brush" : "Brush Mask"
            },
            "name" : "Scene",
            "nodes" : [
                0,
                1
            ]
        }
    ],
    "nodes" : [
        {
            "extras" : {
                "currentUVSet" : "map1",
                "MM" : {},
                "hops" : {},
                "DM" : {},
                "b_painter_active_material" : 0,
                "kitops" : {},
                "M3" : {}
            },
            "mesh" : 0,
            "name" : "Tree_Hero"
        },
        {
            "extras" : {
                "collider" : 1.0
            },
            "mesh" : 1,
            "name" : "Tree_Hero_Collider"
        }
    ],
    "materials" : [
        {
            "extras" : {
                "DM" : {},
                "b_painter" : {}
            },
            "name" : "M_HeroTree_Trunk",
            "normalTexture" : {
                "index" : 0
            },
            "occlusionTexture" : {
                "index" : 1
            },
            "pbrMetallicRoughness" : {
                "baseColorTexture" : {
                    "index" : 2
                },
                "metallicRoughnessTexture" : {
                    "index" : 1
                }
            }
        },
        {
            "extras" : {
                "DM" : {},
                "b_painter" : {}
            },
            "name" : "M_HeroTree_Canopy",
            "normalTexture" : {
                "index" : 3
            },
            "occlusionTexture" : {
                "index" : 4
            },
            "pbrMetallicRoughness" : {
                "baseColorTexture" : {
                    "index" : 5
                },
                "metallicRoughnessTexture" : {
                    "index" : 4
                }
            }
        }
    ],
    "meshes" : [
        {
            "extras" : {
                "hops" : {}
            },
            "name" : "Mesh",
            "primitives" : [
                {
                    "attributes" : {
                        "POSITION" : 0,
                        "NORMAL" : 1,
                        "TEXCOORD_0" : 2,
                        "COLOR_0" : 3
                    },
                    "indices" : 4,
                    "material" : 0
                },
                {
                    "attributes" : {
                        "POSITION" : 5,
                        "NORMAL" : 6,
                        "TEXCOORD_0" : 7,
                        "COLOR_0" : 8
                    },
                    "indices" : 9,
                    "material" : 1
                }
            ]
        },
        {
            "name" : "Plane",
            "primitives" : [
                {
                    "attributes" : {
                        "POSITION" : 10,
                        "NORMAL" : 11,
                        "TEXCOORD_0" : 12
                    },
                    "indices" : 13
                }
            ]
        }
    ],
    "textures" : [
        {
            "sampler" : 0,
            "source" : 0
        },
        {
            "sampler" : 0,
            "source" : 1
        },
        {
            "sampler" : 0,
            "source" : 2
        },
        {
            "sampler" : 0,
            "source" : 3
        },
        {
            "sampler" : 0,
            "source" : 4
        },
        {
            "sampler" : 0,
            "source" : 5
        }
    ],
    "images" : [
        {
            "mimeType" : "image/png",
            "name" : "T_HeroTree_Trunk_N",
            "uri" : "T_HeroTree_Trunk_N.png"
        },
        {
            "mimeType" : "image/png",
            "name" : "T_HeroTree_Trunk_ORM",
            "uri" : "T_HeroTree_Trunk_ORM.png"
        },
        {
            "mimeType" : "image/png",
            "name" : "T_HeroTree_Trunk_D",
            "uri" : "T_HeroTree_Trunk_D.png"
        },
        {
            "mimeType" : "image/png",
            "name" : "T_HeroTree_Canopy_N",
            "uri" : "T_HeroTree_Canopy_N.png"
        },
        {
            "mimeType" : "image/png",
            "name" : "T_HeroTree_Canopy_ORM",
            "uri" : "T_HeroTree_Canopy_ORM.png"
        },
        {
            "mimeType" : "image/png",
            "name" : "T_HeroTree_Canopy_D",
            "uri" : "T_HeroTree_Canopy_D.png"
        }
    ],
    "accessors" : [
        {
            "bufferView" : 0,
            "componentType" : 5126,
            "count" : 7649,
            "max" : [
                9.348791122436523,
                16.897972106933594,
                7.4771575927734375
            ],
            "min" : [
                -5.954501628875732,
                -0.7846887111663818,
                -4.410017013549805
            ],
            "type" : "VEC3"
        },
        {
            "bufferView" : 1,
            "componentType" : 5126,
            "count" : 7649,
            "type" : "VEC3"
        },
        {
            "bufferView" : 2,
            "componentType" : 5126,
            "count" : 7649,
            "type" : "VEC2"
        },
        {
            "bufferView" : 3,
            "componentType" : 5123,
            "count" : 7649,
            "normalized" : true,
            "type" : "VEC4"
        },
        {
            "bufferView" : 4,
            "componentType" : 5123,
            "count" : 36810,
            "type" : "SCALAR"
        },
        {
            "bufferView" : 5,
            "componentType" : 5126,
            "count" : 5701,
            "max" : [
                12.065443992614746,
                20.736591339111328,
                10.126690864562988
            ],
            "min" : [
                -9.592085838317871,
                7.617279529571533,
                -7.1271491050720215
            ],
            "type" : "VEC3"
        },
        {
            "bufferView" : 6,
            "componentType" : 5126,
            "count" : 5701,
            "type" : "VEC3"
        },
        {
            "bufferView" : 7,
            "componentType" : 5126,
            "count" : 5701,
            "type" : "VEC2"
        },
        {
            "bufferView" : 8,
            "componentType" : 5123,
            "count" : 5701,
            "normalized" : true,
            "type" : "VEC4"
        },
        {
            "bufferView" : 9,
            "componentType" : 5123,
            "count" : 30246,
            "type" : "SCALAR"
        },
        {
            "bufferView" : 10,
            "componentType" : 5126,
            "count" : 1176,
            "max" : [
                7.541017055511475,
                19.273357391357422,
                7.8169264793396
            ],
            "min" : [
                -5.401003360748291,
                -0.9481534957885742,
                -6.384045124053955
            ],
            "type" : "VEC3"
        },
        {
            "bufferView" : 11,
            "componentType" : 5126,
            "count" : 1176,
            "type" : "VEC3"
        },
        {
            "bufferView" : 12,
            "componentType" : 5126,
            "count" : 1176,
            "type" : "VEC2"
        },
        {
            "bufferView" : 13,
            "componentType" : 5123,
            "count" : 1764,
            "type" : "SCALAR"
        }
    ],
    "bufferViews" : [
        {
            "buffer" : 0,
            "byteLength" : 91788,
            "byteOffset" : 0
        },
        {
            "buffer" : 0,
            "byteLength" : 91788,
            "byteOffset" : 91788
        },
        {
            "buffer" : 0,
            "byteLength" : 61192,
            "byteOffset" : 183576
        },
        {
            "buffer" : 0,
            "byteLength" : 61192,
            "byteOffset" : 244768
        },
        {
            "buffer" : 0,
            "byteLength" : 73620,
            "byteOffset" : 305960
        },
        {
            "buffer" : 0,
            "byteLength" : 68412,
            "byteOffset" : 379580
        },
        {
            "buffer" : 0,
            "byteLength" : 68412,
            "byteOffset" : 447992
        },
        {
            "buffer" : 0,
            "byteLength" : 45608,
            "byteOffset" : 516404
        },
        {
            "buffer" : 0,
            "byteLength" : 45608,
            "byteOffset" : 562012
        },
        {
            "buffer" : 0,
            "byteLength" : 60492,
            "byteOffset" : 607620
        },
        {
            "buffer" : 0,
            "byteLength" : 14112,
            "byteOffset" : 668112
        },
        {
            "buffer" : 0,
            "byteLength" : 14112,
            "byteOffset" : 682224
        },
        {
            "buffer" : 0,
            "byteLength" : 9408,
            "byteOffset" : 696336
        },
        {
            "buffer" : 0,
            "byteLength" : 3528,
            "byteOffset" : 705744
        }
    ],
    "samplers" : [
        {
            "magFilter" : 9729,
            "minFilter" : 9987
        }
    ],
    "buffers" : [
        {
            "byteLength" : 709272,
            "uri" : "Tree_Hero.bin"
        }
    ]
}
