{
  "asset": {
    "generator": "glTF-Transform v2.4.3",
    "version": "2.0"
  },
  "accessors": [
    {
      "type": "VEC2",
      "componentType": 5126,
      "count": 9904,
      "bufferView": 0,
      "byteOffset": 0
    },
    {
      "type": "VEC3",
      "componentType": 5122,
      "count": 9904,
      "max": [
        22134,
        32719,
        23666
      ],
      "min": [
        -22134,
        -32767,
        -23666
      ],
      "normalized": true,
      "bufferView": 0,
      "byteOffset": 8
    },
    {
      "type": "VEC3",
      "componentType": 5120,
      "count": 9904,
      "normalized": true,
      "bufferView": 0,
      "byteOffset": 16
    },
    {
      "type": "VEC4",
      "componentType": 5120,
      "count": 9904,
      "normalized": true,
      "bufferView": 0,
      "byteOffset": 20
    },
    {
      "type": "VEC2",
      "componentType": 5126,
      "count": 782,
      "bufferView": 1,
      "byteOffset": 0
    },
    {
      "type": "VEC3",
      "componentType": 5122,
      "count": 782,
      "max": [
        27671,
        2720,
        32767
      ],
      "min": [
        -27671,
        -2720,
        -32767
      ],
      "normalized": true,
      "bufferView": 1,
      "byteOffset": 8
    },
    {
      "type": "VEC3",
      "componentType": 5120,
      "count": 782,
      "normalized": true,
      "bufferView": 1,
      "byteOffset": 16
    },
    {
      "type": "VEC4",
      "componentType": 5120,
      "count": 782,
      "normalized": true,
      "bufferView": 1,
      "byteOffset": 20
    },
    {
      "type": "VEC2",
      "componentType": 5126,
      "count": 5884,
      "bufferView": 2,
      "byteOffset": 0
    },
    {
      "type": "VEC3",
      "componentType": 5122,
      "count": 5884,
      "max": [
        23562,
        32767,
        23150
      ],
      "min": [
        -23562,
        -32767,
        -23150
      ],
      "normalized": true,
      "bufferView": 2,
      "byteOffset": 8
    },
    {
      "type": "VEC3",
      "componentType": 5120,
      "count": 5884,
      "normalized": true,
      "bufferView": 2,
      "byteOffset": 16
    },
    {
      "type": "VEC4",
      "componentType": 5120,
      "count": 5884,
      "normalized": true,
      "bufferView": 2,
      "byteOffset": 20
    },
    {
      "type": "SCALAR",
      "componentType": 5123,
      "count": 31767,
      "bufferView": 3,
      "byteOffset": 0
    },
    {
      "type": "SCALAR",
      "componentType": 5123,
      "count": 1566,
      "bufferView": 3,
      "byteOffset": 63536
    },
    {
      "type": "SCALAR",
      "componentType": 5123,
      "count": 13992,
      "bufferView": 3,
      "byteOffset": 66668
    }
  ],
  "bufferViews": [
    {
      "buffer": 0,
      "byteOffset": 0,
      "byteLength": 237696,
      "byteStride": 24,
      "target": 34962
    },
    {
      "buffer": 0,
      "byteOffset": 237696,
      "byteLength": 18768,
      "byteStride": 24,
      "target": 34962
    },
    {
      "buffer": 0,
      "byteOffset": 256464,
      "byteLength": 141216,
      "byteStride": 24,
      "target": 34962
    },
    {
      "buffer": 0,
      "byteOffset": 397680,
      "byteLength": 94652,
      "target": 34963
    }
  ],
  "samplers": [
    {
      "magFilter": 9729,
      "minFilter": 9987,
      "wrapS": 10497,
      "wrapT": 10497
    }
  ],
  "textures": [
    {
      "sampler": 0,
      "extensions": {
        "KHR_texture_basisu": {
          "source": 2
        }
      }
    },
    {
      "sampler": 0,
      "extensions": {
        "KHR_texture_basisu": {
          "source": 0
        }
      }
    },
    {
      "sampler": 0,
      "extensions": {
        "KHR_texture_basisu": {
          "source": 1
        }
      }
    }
  ],
  "images": [
    {
      "name": "Prop_Gazebo_NormalMap",
      "mimeType": "image/ktx2",
      "uri": "Prop_Gazebo_NormalMap.ktx2"
    },
    {
      "name": "Prop_Gazebo_occlusionRoughnessMetallic",
      "mimeType": "image/ktx2",
      "uri": "Prop_Gazebo_occlusionRoughnessMetallic.ktx2"
    },
    {
      "name": "Prop_Gazebo_baseColor",
      "mimeType": "image/ktx2",
      "uri": "Prop_Gazebo_baseColor.ktx2"
    }
  ],
  "buffers": [
    {
      "uri": "Prop_Gazebo_LOD0.bin",
      "byteLength": 492332
    }
  ],
  "materials": [
    {
      "name": "Prop_Gazebo",
      "pbrMetallicRoughness": {
        "baseColorTexture": {
          "index": 0
        },
        "metallicRoughnessTexture": {
          "index": 2
        }
      },
      "normalTexture": {
        "index": 1
      },
      "occlusionTexture": {
        "index": 2
      }
    }
  ],
  "meshes": [
    {
      "name": "Mesh.001",
      "primitives": [
        {
          "attributes": {
            "TEXCOORD_0": 0,
            "POSITION": 1,
            "NORMAL": 2,
            "TANGENT": 3
          },
          "mode": 4,
          "material": 0,
          "indices": 12
        }
      ]
    },
    {
      "name": "Mesh.002",
      "primitives": [
        {
          "attributes": {
            "TEXCOORD_0": 4,
            "POSITION": 5,
            "NORMAL": 6,
            "TANGENT": 7
          },
          "mode": 4,
          "indices": 13
        }
      ]
    },
    {
      "name": "Mesh.003",
      "primitives": [
        {
          "attributes": {
            "TEXCOORD_0": 8,
            "POSITION": 9,
            "NORMAL": 10,
            "TANGENT": 11
          },
          "mode": 4,
          "indices": 14
        }
      ]
    }
  ],
  "nodes": [
    {
      "name": "Prop_Gazebo",
      "extras": {
        "MapChannel:1": "UVChannel_1",
        "MaxHandle": 1,
        "b_painter_active_material": 0
      },
      "translation": [
        0,
        3.461290388227467,
        0.00011329650625668819
      ],
      "scale": [
        3.4966067951185957,
        3.4966067951185957,
        3.4966067951185957
      ],
      "mesh": 0
    }
  ],
  "scenes": [
    {
      "name": "Scene",
      "extras": {
        "b_painter_panels": [
          "BRUSH",
          "COLOR",
          "TEXTURE",
          "STENCIL",
          "LAYER"
        ],
        "bc": {
          "snap": {
            "hit": 0
          }
        },
        "MM": {
          "revision": "6b9140d97c1c89684282504c1b43358bc5142503"
        },
        "b_painter_active_tex_brush_category": "Brush Textures",
        "vr_landmarks": [
          {
            "type": 0
          }
        ],
        "b_painter_active_brush": "Brush Mask",
        "glTF2ExportSettings": {
          "export_animations": 0,
          "export_apply": 1,
          "export_extras": 1,
          "export_format": "GLTF_SEPARATE"
        }
      },
      "nodes": [
        0
      ]
    }
  ],
  "scene": 0,
  "extensionsUsed": [
    "KHR_mesh_quantization",
    "KHR_texture_basisu"
  ],
  "extensionsRequired": [
    "KHR_mesh_quantization",
    "KHR_texture_basisu"
  ]
}