{
  "asset": {
    "generator": "glTF-Transform v2.4.3",
    "version": "2.0"
  },
  "accessors": [
    {
      "type": "SCALAR",
      "componentType": 5123,
      "count": 384,
      "bufferView": 0,
      "byteOffset": 0
    },
    {
      "type": "SCALAR",
      "componentType": 5123,
      "count": 14082,
      "bufferView": 0,
      "byteOffset": 768
    },
    {
      "type": "VEC2",
      "componentType": 5126,
      "count": 132,
      "bufferView": 1,
      "byteOffset": 0
    },
    {
      "type": "VEC3",
      "componentType": 5122,
      "count": 132,
      "max": [
        32767,
        14933,
        32767
      ],
      "min": [
        -32767,
        -14933,
        -32767
      ],
      "normalized": true,
      "bufferView": 1,
      "byteOffset": 8
    },
    {
      "type": "VEC3",
      "componentType": 5120,
      "count": 132,
      "normalized": true,
      "bufferView": 1,
      "byteOffset": 16
    },
    {
      "type": "VEC4",
      "componentType": 5120,
      "count": 132,
      "normalized": true,
      "bufferView": 1,
      "byteOffset": 20
    },
    {
      "type": "VEC3",
      "componentType": 5122,
      "count": 3260,
      "max": [
        32767,
        16001,
        32767
      ],
      "min": [
        -32767,
        -16001,
        -32767
      ],
      "normalized": true,
      "bufferView": 2,
      "byteOffset": 0
    },
    {
      "type": "VEC3",
      "componentType": 5120,
      "count": 3260,
      "normalized": true,
      "bufferView": 2,
      "byteOffset": 8
    },
    {
      "type": "VEC2",
      "componentType": 5123,
      "count": 3260,
      "normalized": true,
      "bufferView": 2,
      "byteOffset": 12
    },
    {
      "type": "VEC4",
      "componentType": 5120,
      "count": 3260,
      "normalized": true,
      "bufferView": 2,
      "byteOffset": 16
    }
  ],
  "bufferViews": [
    {
      "buffer": 0,
      "byteOffset": 0,
      "byteLength": 28932,
      "target": 34963
    },
    {
      "buffer": 0,
      "byteOffset": 28932,
      "byteLength": 3168,
      "byteStride": 24,
      "target": 34962
    },
    {
      "buffer": 0,
      "byteOffset": 32100,
      "byteLength": 65200,
      "byteStride": 20,
      "target": 34962
    }
  ],
  "samplers": [
    {
      "magFilter": 9729,
      "minFilter": 9987,
      "wrapS": 10497,
      "wrapT": 10497
    }
  ],
  "textures": [
    {
      "sampler": 0,
      "extensions": {
        "KHR_texture_basisu": {
          "source": 2
        }
      }
    },
    {
      "sampler": 0,
      "extensions": {
        "KHR_texture_basisu": {
          "source": 0
        }
      }
    },
    {
      "sampler": 0,
      "extensions": {
        "KHR_texture_basisu": {
          "source": 1
        }
      }
    }
  ],
  "images": [
    {
      "name": "Prop_Fountain_NormalMap",
      "mimeType": "image/ktx2",
      "uri": "Prop_Fountain_NormalMap.ktx2"
    },
    {
      "name": "Prop_Fountain_occlusionRoughnessMetallic",
      "mimeType": "image/ktx2",
      "uri": "Prop_Fountain_occlusionRoughnessMetallic.ktx2"
    },
    {
      "name": "Prop_Fountain_BaseColor",
      "mimeType": "image/ktx2",
      "uri": "Prop_Fountain_BaseColor.ktx2"
    }
  ],
  "buffers": [
    {
      "uri": "Prop_Fountain.bin",
      "byteLength": 97300
    }
  ],
  "materials": [
    {
      "name": "Prop_Fountain_Water",
      "alphaMode": "BLEND",
      "pbrMetallicRoughness": {
        "baseColorFactor": [
          0.45465925335884094,
          0.5784834027290344,
          0.6738471388816833,
          0.25
        ],
        "roughnessFactor": 0.21749046444892883,
        "metallicFactor": 0
      },
      "extensions": {
        "KHR_materials_clearcoat": {
          "clearcoatFactor": 0.05369126796722412,
          "clearcoatRoughnessFactor": 0.3454362452030182
        }
      }
    },
    {
      "name": "Prop_Fountain",
      "pbrMetallicRoughness": {
        "baseColorTexture": {
          "index": 0
        },
        "metallicRoughnessTexture": {
          "index": 2
        }
      },
      "normalTexture": {
        "index": 1
      },
      "occlusionTexture": {
        "index": 2
      }
    }
  ],
  "meshes": [
    {
      "name": "Prop_Fountain_Water",
      "primitives": [
        {
          "attributes": {
            "TEXCOORD_0": 2,
            "POSITION": 3,
            "NORMAL": 4,
            "TANGENT": 5
          },
          "mode": 4,
          "material": 0,
          "indices": 0
        }
      ]
    },
    {
      "name": "Prop_Fontain",
      "primitives": [
        {
          "attributes": {
            "POSITION": 6,
            "NORMAL": 7,
            "TEXCOORD_0": 8,
            "TANGENT": 9
          },
          "mode": 4,
          "material": 1,
          "indices": 1
        }
      ]
    }
  ],
  "nodes": [
    {
      "name": "Prop_Fountain_Water",
      "extras": {
        "b_painter_active_material": 0
      },
      "translation": [
        0,
        1.6339382827281952,
        0
      ],
      "scale": [
        2.4877824783325195,
        2.4877824783325195,
        2.4877824783325195
      ],
      "mesh": 0
    },
    {
      "name": "Prop_Fountain",
      "extras": {
        "paramrenderwidth": 2048,
        "paramrenderheight": 2048,
        "paramfacecolor": [
          0.7058823704719543,
          0.2078431397676468,
          0.09019608050584793
        ],
        "paramedgecolor": [
          1,
          0.7764706015586853,
          0
        ],
        "paramedgewidth": 1,
        "MapChannel:1": "UVMap",
        "MapChannel:2": "map1",
        "MaxHandle": 2,
        "b_painter_active_material": 0
      },
      "translation": [
        0,
        1.4002977569230097,
        0
      ],
      "scale": [
        2.867215394973755,
        2.867215394973755,
        2.867215394973755
      ],
      "mesh": 1
    }
  ],
  "scenes": [
    {
      "name": "Scene",
      "extras": {
        "b_painter_panels": [
          "BRUSH",
          "COLOR",
          "TEXTURE",
          "STENCIL",
          "LAYER"
        ],
        "b_painter_active_tex_brush_category": "Brush Textures",
        "bc": {
          "snap": {
            "hit": 0
          }
        },
        "MM": {
          "revision": "6b9140d97c1c89684282504c1b43358bc5142503"
        },
        "vr_landmarks": [
          {
            "type": 0
          }
        ],
        "b_painter_active_brush": "Brush Mask",
        "b_painter_brush": 0,
        "b_painter_active_tex_brush": "None",
        "glTF2ExportSettings": {
          "export_animations": 0,
          "export_extras": 1,
          "export_format": "GLTF_SEPARATE",
          "export_morph": 0,
          "export_skins": 0
        }
      },
      "nodes": [
        0,
        1
      ]
    }
  ],
  "scene": 0,
  "extensionsUsed": [
    "KHR_materials_clearcoat",
    "KHR_texture_basisu",
    "KHR_mesh_quantization"
  ],
  "extensionsRequired": [
    "KHR_texture_basisu",
    "KHR_mesh_quantization"
  ]
}