{
  "asset": {
    "generator": "glTF-Transform v2.4.3",
    "version": "2.0"
  },
  "accessors": [
    {
      "type": "SCALAR",
      "componentType": 5123,
      "count": 36810,
      "bufferView": 0,
      "byteOffset": 0
    },
    {
      "type": "SCALAR",
      "componentType": 5123,
      "count": 30246,
      "bufferView": 0,
      "byteOffset": 73620
    },
    {
      "type": "SCALAR",
      "componentType": 5123,
      "count": 1764,
      "bufferView": 0,
      "byteOffset": 134112
    },
    {
      "type": "VEC3",
      "componentType": 5122,
      "count": 7635,
      "max": [
        24546,
        20946,
        18086
      ],
      "min": [
        -21758,
        -32559,
        -17882
      ],
      "normalized": true,
      "bufferView": 1,
      "byteOffset": 0
    },
    {
      "type": "VEC3",
      "componentType": 5120,
      "count": 7635,
      "normalized": true,
      "bufferView": 1,
      "byteOffset": 8
    },
    {
      "type": "VEC2",
      "componentType": 5123,
      "count": 7635,
      "normalized": true,
      "bufferView": 1,
      "byteOffset": 12
    },
    {
      "type": "VEC4",
      "componentType": 5121,
      "count": 7635,
      "normalized": true,
      "bufferView": 1,
      "byteOffset": 16
    },
    {
      "type": "VEC4",
      "componentType": 5120,
      "count": 7635,
      "normalized": true,
      "bufferView": 1,
      "byteOffset": 20
    },
    {
      "type": "VEC3",
      "componentType": 5122,
      "count": 5707,
      "max": [
        32767,
        32559,
        26103
      ],
      "min": [
        -32767,
        -7136,
        -26103
      ],
      "normalized": true,
      "bufferView": 2,
      "byteOffset": 0
    },
    {
      "type": "VEC3",
      "componentType": 5120,
      "count": 5707,
      "normalized": true,
      "bufferView": 2,
      "byteOffset": 8
    },
    {
      "type": "VEC2",
      "componentType": 5123,
      "count": 5707,
      "normalized": true,
      "bufferView": 2,
      "byteOffset": 12
    },
    {
      "type": "VEC4",
      "componentType": 5121,
      "count": 5707,
      "normalized": true,
      "bufferView": 2,
      "byteOffset": 16
    },
    {
      "type": "VEC4",
      "componentType": 5120,
      "count": 5707,
      "normalized": true,
      "bufferView": 2,
      "byteOffset": 20
    },
    {
      "type": "VEC3",
      "componentType": 5122,
      "count": 831,
      "max": [
        20970,
        32767,
        23010
      ],
      "min": [
        -20970,
        -32767,
        -23010
      ],
      "normalized": true,
      "bufferView": 3,
      "byteOffset": 0
    },
    {
      "type": "VEC3",
      "componentType": 5120,
      "count": 831,
      "normalized": true,
      "bufferView": 3,
      "byteOffset": 8
    },
    {
      "type": "VEC2",
      "componentType": 5123,
      "count": 831,
      "normalized": true,
      "bufferView": 3,
      "byteOffset": 12
    },
    {
      "type": "VEC4",
      "componentType": 5120,
      "count": 831,
      "normalized": true,
      "bufferView": 3,
      "byteOffset": 16
    }
  ],
  "bufferViews": [
    {
      "buffer": 0,
      "byteOffset": 0,
      "byteLength": 137640,
      "target": 34963
    },
    {
      "buffer": 0,
      "byteOffset": 137640,
      "byteLength": 183240,
      "byteStride": 24,
      "target": 34962
    },
    {
      "buffer": 0,
      "byteOffset": 320880,
      "byteLength": 136968,
      "byteStride": 24,
      "target": 34962
    },
    {
      "buffer": 0,
      "byteOffset": 457848,
      "byteLength": 16620,
      "byteStride": 20,
      "target": 34962
    }
  ],
  "samplers": [
    {
      "magFilter": 9729,
      "minFilter": 9987,
      "wrapS": 10497,
      "wrapT": 10497
    }
  ],
  "textures": [
    {
      "sampler": 0,
      "extensions": {
        "KHR_texture_basisu": {
          "source": 2
        }
      }
    },
    {
      "sampler": 0,
      "extensions": {
        "KHR_texture_basisu": {
          "source": 0
        }
      }
    },
    {
      "sampler": 0,
      "extensions": {
        "KHR_texture_basisu": {
          "source": 1
        }
      }
    },
    {
      "sampler": 0,
      "extensions": {
        "KHR_texture_basisu": {
          "source": 5
        }
      }
    },
    {
      "sampler": 0,
      "extensions": {
        "KHR_texture_basisu": {
          "source": 3
        }
      }
    },
    {
      "sampler": 0,
      "extensions": {
        "KHR_texture_basisu": {
          "source": 4
        }
      }
    }
  ],
  "images": [
    {
      "name": "T_HeroTree_Trunk_N",
      "mimeType": "image/ktx2",
      "uri": "T_HeroTree_Trunk_N.ktx2"
    },
    {
      "name": "T_HeroTree_Trunk_ORM",
      "mimeType": "image/ktx2",
      "uri": "T_HeroTree_Trunk_ORM.ktx2"
    },
    {
      "name": "T_HeroTree_Trunk_D",
      "mimeType": "image/ktx2",
      "uri": "T_HeroTree_Trunk_D.ktx2"
    },
    {
      "name": "T_HeroTree_Canopy_N",
      "mimeType": "image/ktx2",
      "uri": "T_HeroTree_Canopy_N.ktx2"
    },
    {
      "name": "T_HeroTree_Canopy_ORM",
      "mimeType": "image/ktx2",
      "uri": "T_HeroTree_Canopy_ORM.ktx2"
    },
    {
      "name": "T_HeroTree_Canopy_D",
      "mimeType": "image/ktx2",
      "uri": "T_HeroTree_Canopy_D.ktx2"
    }
  ],
  "buffers": [
    {
      "uri": "Tree_Hero.bin",
      "byteLength": 474468
    }
  ],
  "materials": [
    {
      "name": "M_HeroTree_Trunk",
      "extras": {
        "DM": {},
        "b_painter": {}
      },
      "pbrMetallicRoughness": {
        "baseColorTexture": {
          "index": 0
        },
        "metallicRoughnessTexture": {
          "index": 2
        }
      },
      "normalTexture": {
        "index": 1
      },
      "occlusionTexture": {
        "index": 2
      }
    },
    {
      "name": "M_HeroTree_Canopy",
      "extras": {
        "DM": {},
        "b_painter": {}
      },
      "pbrMetallicRoughness": {
        "baseColorTexture": {
          "index": 3
        },
        "metallicRoughnessTexture": {
          "index": 5
        }
      },
      "normalTexture": {
        "index": 4
      },
      "occlusionTexture": {
        "index": 5
      }
    }
  ],
  "meshes": [
    {
      "name": "Mesh",
      "extras": {
        "hops": {}
      },
      "primitives": [
        {
          "attributes": {
            "POSITION": 3,
            "NORMAL": 4,
            "TEXCOORD_0": 5,
            "COLOR_0": 6,
            "TANGENT": 7
          },
          "mode": 4,
          "material": 0,
          "indices": 0
        },
        {
          "attributes": {
            "POSITION": 8,
            "NORMAL": 9,
            "TEXCOORD_0": 10,
            "COLOR_0": 11,
            "TANGENT": 12
          },
          "mode": 4,
          "material": 1,
          "indices": 1
        }
      ]
    },
    {
      "name": "Plane",
      "primitives": [
        {
          "attributes": {
            "POSITION": 13,
            "NORMAL": 14,
            "TEXCOORD_0": 15,
            "TANGENT": 16
          },
          "mode": 4,
          "indices": 2
        }
      ]
    }
  ],
  "nodes": [
    {
      "name": "Tree_Hero",
      "extras": {
        "currentUVSet": "map1",
        "MM": {},
        "hops": {},
        "DM": {},
        "b_painter_active_material": 0,
        "kitops": {},
        "M3": {}
      },
      "translation": [
        1.2366790771484375,
        9.975951313972473,
        1.4997708797454834
      ],
      "scale": [
        10.828764915466309,
        10.828764915466309,
        10.828764915466309
      ],
      "mesh": 0
    },
    {
      "name": "Tree_Hero_Collider",
      "extras": {
        "collider": 1
      },
      "translation": [
        1.0700068473815918,
        9.162601947784424,
        0.7164406776428223
      ],
      "scale": [
        10.110755443572998,
        10.110755443572998,
        10.110755443572998
      ],
      "mesh": 1
    }
  ],
  "scenes": [
    {
      "name": "Scene",
      "extras": {
        "DM": {
          "revision": "df474acfd29b8014bff4dc0b249ca05ef2b1a013",
          "export_atlas_texture_channel_packCOL": [
            {
              "avoid_update": 0,
              "name": "ao_curv_height",
              "red": 2,
              "green": 3,
              "blue": 4
            },
            {
              "avoid_update": 0,
              "name": "masks",
              "red": 1,
              "green": 9,
              "blue": 10
            }
          ]
        },
        "MM": {
          "revision": "57ae851e9b0759eef65e265c8eba239ba8391f68"
        },
        "gaf_props": {
          "IsShowingRadius": 0,
          "IsShowingLabel": 0
        },
        "zen_display": {
          "stacked": 0,
          "finished": 0,
          "stretch": 0
        },
        "zen_sets_object_list": [
          {
            "level": 0,
            "layer_name": "zen_sets_object_layer_50d5a559-ee8e-4a23-a6e2-ea1162b535db",
            "has_children": 1,
            "collection": null,
            "parent_collection": null,
            "parent_idx": -1
          },
          {
            "level": 1,
            "layer_name": "zen_sets_object_layer_4b894c6f-0be3-4f77-8a26-17854603f73a",
            "has_children": 0,
            "collection": {
              "name": "Collection",
              "type": "Collection"
            },
            "parent_collection": null,
            "parent_idx": 0
          }
        ],
        "zsts_color_palette": {
          "palette": {}
        },
        "ZBBQ_UserHasDisabledColoredEdgesAtLeastOnce": 0,
        "bc": {
          "snap": {
            "hit": 0
          }
        },
        "zen_sets_object_list_index": 1,
        "zen_sets_active_mode": 2,
        "zen_sets_last_face_mode": "face",
        "ZBBQ_PresetsIncluded": {
          "title": "Default cm",
          "unitSystem": 1,
          "bevelPresetsIndex": 0,
          "bevelPresets": [
            {
              "unitSystem": 1,
              "radius": 1,
              "units": 1,
              "colorId": "ColorA",
              "color": [
                1,
                0.11100621521472931,
                0.16977672278881073
              ]
            },
            {
              "unitSystem": 1,
              "radius": 2,
              "units": 1,
              "colorId": "ColorB",
              "color": [
                0.002567382762208581,
                0.43090468645095825,
                0.019824344664812088
              ]
            },
            {
              "unitSystem": 1,
              "radius": 3,
              "units": 1,
              "colorId": "ColorC",
              "color": [
                0.02643318846821785,
                0.21164964139461517,
                0.6249921321868896
              ]
            },
            {
              "unitSystem": 1,
              "radius": 5,
              "units": 1,
              "colorId": "ColorD",
              "color": [
                0.9321982860565186,
                0.7369347810745239,
                0.015988152474164963
              ]
            },
            {
              "unitSystem": 1,
              "radius": 7,
              "units": 1,
              "colorId": "ColorE",
              "color": [
                0.11100621521472931,
                0.6797053217887878,
                1
              ]
            },
            {
              "unitSystem": 1,
              "radius": 10,
              "units": 1,
              "colorId": "ColorF",
              "color": [
                0.708004355430603,
                0.10335222631692886,
                1
              ]
            }
          ]
        },
        "ZBBQ_HasPresetsIncluded": 1,
        "uvpm3_props": {},
        "ZBBQ_ZenBBQOverlayShow": 0,
        "zen_sets_last_edge_mode": "edge",
        "zen_sets_last_vert_mode": "vert",
        "b_painter_panels": [
          "BRUSH",
          "COLOR",
          "TEXTURE",
          "STENCIL",
          "LAYER"
        ],
        "b_painter_active_tex_brush_category": "Brush Textures",
        "kitops": {},
        "M3": {},
        "vr_landmarks": [
          {
            "type": 0
          }
        ],
        "b_painter_active_brush": "Brush Mask"
      },
      "nodes": [
        0,
        1
      ]
    }
  ],
  "scene": 0,
  "extensionsUsed": [
    "KHR_texture_basisu",
    "KHR_mesh_quantization"
  ],
  "extensionsRequired": [
    "KHR_texture_basisu",
    "KHR_mesh_quantization"
  ]
}