{
    "asset" : {
        "generator" : "Khronos glTF Blender I/O v1.8.19",
        "version" : "2.0"
    },
    "scene" : 0,
    "scenes" : [
        {
            "name" : "Scene",
            "nodes" : [
                0
            ]
        }
    ],
    "nodes" : [
        {
            "mesh" : 0,
            "name" : "Fauna_Fish_A"
        }
    ],
    "materials" : [
        {
            "name" : "Fauna_Fish_A",
            "normalTexture" : {
                "index" : 0
            },
            "occlusionTexture" : {
                "index" : 1
            },
            "pbrMetallicRoughness" : {
                "baseColorTexture" : {
                    "index" : 2
                },
                "metallicRoughnessTexture" : {
                    "index" : 1
                }
            }
        }
    ],
    "meshes" : [
        {
            "extras" : {
                "targetNames" : [
                    "Breathing",
                    "Twist_Left",
                    "Twist_Right"
                ]
            },
            "name" : "Fauna_Fish",
            "primitives" : [
                {
                    "attributes" : {
                        "POSITION" : 0,
                        "NORMAL" : 1,
                        "TEXCOORD_0" : 2
                    },
                    "indices" : 3,
                    "material" : 0,
                    "targets" : [
                        {
                            "POSITION" : 4,
                            "NORMAL" : 5
                        },
                        {
                            "POSITION" : 6,
                            "NORMAL" : 7
                        },
                        {
                            "POSITION" : 8,
                            "NORMAL" : 9
                        }
                    ]
                }
            ],
            "weights" : [
                0,
                0,
                0
            ]
        }
    ],
    "textures" : [
        {
            "sampler" : 0,
            "source" : 0
        },
        {
            "sampler" : 0,
            "source" : 1
        },
        {
            "sampler" : 0,
            "source" : 2
        }
    ],
    "images" : [
        {
            "mimeType" : "image/png",
            "name" : "Fauna_Fish_NormalMap",
            "uri" : "Fauna_Fish_NormalMap.png"
        },
        {
            "mimeType" : "image/png",
            "name" : "Fauna_Fish_A_occlusionRoughnessMetallic",
            "uri" : "Fauna_Fish_A_occlusionRoughnessMetallic.png"
        },
        {
            "mimeType" : "image/png",
            "name" : "Fauna_Fish_A_BaseColor",
            "uri" : "Fauna_Fish_A_BaseColor.png"
        }
    ],
    "accessors" : [
        {
            "bufferView" : 0,
            "componentType" : 5126,
            "count" : 158,
            "max" : [
                0.04548027738928795,
                0.05820536985993385,
                0.14968743920326233
            ],
            "min" : [
                -0.043938443064689636,
                -0.04187658429145813,
                -0.14444774389266968
            ],
            "type" : "VEC3"
        },
        {
            "bufferView" : 1,
            "componentType" : 5126,
            "count" : 158,
            "type" : "VEC3"
        },
        {
            "bufferView" : 2,
            "componentType" : 5126,
            "count" : 158,
            "type" : "VEC2"
        },
        {
            "bufferView" : 3,
            "componentType" : 5123,
            "count" : 540,
            "type" : "SCALAR"
        },
        {
            "bufferView" : 4,
            "componentType" : 5126,
            "count" : 158,
            "max" : [
                0.0015144813805818558,
                0.0031403687316924334,
                0.0017155259847640991
            ],
            "min" : [
                -0.001435769721865654,
                -0.0025974619202315807,
                -0.011237502098083496
            ],
            "type" : "VEC3"
        },
        {
            "bufferView" : 5,
            "componentType" : 5126,
            "count" : 158,
            "type" : "VEC3"
        },
        {
            "bufferView" : 6,
            "componentType" : 5126,
            "count" : 158,
            "max" : [
                0.08468010276556015,
                0.001507733017206192,
                0.020374655723571777
            ],
            "min" : [
                0,
                -8.209235966205597e-05,
                -0.005005672574043274
            ],
            "type" : "VEC3"
        },
        {
            "bufferView" : 7,
            "componentType" : 5126,
            "count" : 158,
            "type" : "VEC3"
        },
        {
            "bufferView" : 8,
            "componentType" : 5126,
            "count" : 158,
            "max" : [
                0,
                0.0002035088837146759,
                0.0211300328373909
            ],
            "min" : [
                -0.08663588762283325,
                -4.941783845424652e-05,
                -0.0041402531787753105
            ],
            "type" : "VEC3"
        },
        {
            "bufferView" : 9,
            "componentType" : 5126,
            "count" : 158,
            "type" : "VEC3"
        }
    ],
    "bufferViews" : [
        {
            "buffer" : 0,
            "byteLength" : 1896,
            "byteOffset" : 0
        },
        {
            "buffer" : 0,
            "byteLength" : 1896,
            "byteOffset" : 1896
        },
        {
            "buffer" : 0,
            "byteLength" : 1264,
            "byteOffset" : 3792
        },
        {
            "buffer" : 0,
            "byteLength" : 1080,
            "byteOffset" : 5056
        },
        {
            "buffer" : 0,
            "byteLength" : 1896,
            "byteOffset" : 6136
        },
        {
            "buffer" : 0,
            "byteLength" : 1896,
            "byteOffset" : 8032
        },
        {
            "buffer" : 0,
            "byteLength" : 1896,
            "byteOffset" : 9928
        },
        {
            "buffer" : 0,
            "byteLength" : 1896,
            "byteOffset" : 11824
        },
        {
            "buffer" : 0,
            "byteLength" : 1896,
            "byteOffset" : 13720
        },
        {
            "buffer" : 0,
            "byteLength" : 1896,
            "byteOffset" : 15616
        }
    ],
    "samplers" : [
        {
            "magFilter" : 9729,
            "minFilter" : 9987
        }
    ],
    "buffers" : [
        {
            "byteLength" : 17512,
            "uri" : "Fauna_Fish_A.bin"
        }
    ]
}
