{
    "asset" : {
        "generator" : "Khronos glTF Blender I/O v3.2.43",
        "version" : "2.0"
    },
    "scene" : 0,
    "scenes" : [
        {
            "name" : "Scene",
            "nodes" : [
                3
            ]
        }
    ],
    "nodes" : [
        {
            "mesh" : 0,
            "name" : "PanelGraphic"
        },
        {
            "mesh" : 1,
            "name" : "Trim"
        },
        {
            "mesh" : 2,
            "name" : "VideoMask",
            "translation" : [
                0,
                0.0003048001672141254,
                -0.028198914602398872
            ]
        },
        {
            "children" : [
                0,
                1,
                2
            ],
            "name" : "NUXPanel",
            "rotation" : [
                0.7071068286895752,
                0,
                0,
                0.7071068286895752
            ],
            "scale" : [
                3.5,
                3.5,
                3.5
            ],
            "translation" : [
                0,
                0,
                -0.0678258016705513
            ]
        }
    ],
    "materials" : [
        {
            "doubleSided" : true,
            "name" : "UIPanelWoodTexture",
            "pbrMetallicRoughness" : {
                "baseColorTexture" : {
                    "index" : 0
                },
                "metallicFactor" : 0,
                "roughnessFactor" : 0
            }
        },
        {
            "doubleSided" : true,
            "name" : "UIPanelTrim",
            "pbrMetallicRoughness" : {
                "baseColorFactor" : [
                    0.800000011920929,
                    0.800000011920929,
                    0.800000011920929,
                    1
                ],
                "metallicFactor" : 0,
                "roughnessFactor" : 0.5
            }
        },
        {
            "doubleSided" : true,
            "name" : "VideoMask",
            "pbrMetallicRoughness" : {
                "baseColorFactor" : [
                    0,
                    0.04200000315904617,
                    0.8000000715255737,
                    1
                ],
                "metallicFactor" : 0,
                "roughnessFactor" : 0.5
            }
        }
    ],
    "meshes" : [
        {
            "name" : "CUBezierCurve.013",
            "primitives" : [
                {
                    "attributes" : {
                        "POSITION" : 0,
                        "NORMAL" : 1,
                        "TEXCOORD_0" : 2
                    },
                    "indices" : 3,
                    "material" : 0
                }
            ]
        },
        {
            "name" : "CUBezierCurve.001",
            "primitives" : [
                {
                    "attributes" : {
                        "POSITION" : 4,
                        "NORMAL" : 5,
                        "TEXCOORD_0" : 6
                    },
                    "indices" : 7,
                    "material" : 1
                }
            ]
        },
        {
            "name" : "CUBezierCurve.005",
            "primitives" : [
                {
                    "attributes" : {
                        "POSITION" : 8,
                        "NORMAL" : 9,
                        "TEXCOORD_0" : 10
                    },
                    "indices" : 11,
                    "material" : 2
                }
            ]
        }
    ],
    "textures" : [
        {
            "sampler" : 0,
            "source" : 0
        }
    ],
    "images" : [
        {
            "mimeType" : "image/png",
            "name" : "woodtexture",
            "uri" : "woodtexture.png"
        }
    ],
    "accessors" : [
        {
            "bufferView" : 0,
            "componentType" : 5126,
            "count" : 38,
            "max" : [
                0.1487303078174591,
                0.019682612270116806,
                0.16299337148666382
            ],
            "min" : [
                -0.1487303078174591,
                -0.017548266798257828,
                -0.16267430782318115
            ],
            "type" : "VEC3"
        },
        {
            "bufferView" : 1,
            "componentType" : 5126,
            "count" : 38,
            "type" : "VEC3"
        },
        {
            "bufferView" : 2,
            "componentType" : 5126,
            "count" : 38,
            "type" : "VEC2"
        },
        {
            "bufferView" : 3,
            "componentType" : 5123,
            "count" : 96,
            "type" : "SCALAR"
        },
        {
            "bufferView" : 4,
            "componentType" : 5126,
            "count" : 21284,
            "max" : [
                0.15642061829566956,
                0.029043613001704216,
                0.1703466922044754
            ],
            "min" : [
                -0.15642061829566956,
                -0.029043620452284813,
                -0.1703466922044754
            ],
            "type" : "VEC3"
        },
        {
            "bufferView" : 5,
            "componentType" : 5126,
            "count" : 21284,
            "type" : "VEC3"
        },
        {
            "bufferView" : 6,
            "componentType" : 5126,
            "count" : 21284,
            "type" : "VEC2"
        },
        {
            "bufferView" : 7,
            "componentType" : 5123,
            "count" : 82944,
            "type" : "SCALAR"
        },
        {
            "bufferView" : 8,
            "componentType" : 5126,
            "count" : 22,
            "max" : [
                0.1487303078174591,
                0.020553046837449074,
                0.021424882113933563
            ],
            "min" : [
                -0.1487303078174591,
                0.019682612270116806,
                -0.13626497983932495
            ],
            "type" : "VEC3"
        },
        {
            "bufferView" : 9,
            "componentType" : 5126,
            "count" : 22,
            "type" : "VEC3"
        },
        {
            "bufferView" : 10,
            "componentType" : 5126,
            "count" : 22,
            "type" : "VEC2"
        },
        {
            "bufferView" : 11,
            "componentType" : 5123,
            "count" : 36,
            "type" : "SCALAR"
        }
    ],
    "bufferViews" : [
        {
            "buffer" : 0,
            "byteLength" : 456,
            "byteOffset" : 0
        },
        {
            "buffer" : 0,
            "byteLength" : 456,
            "byteOffset" : 456
        },
        {
            "buffer" : 0,
            "byteLength" : 304,
            "byteOffset" : 912
        },
        {
            "buffer" : 0,
            "byteLength" : 192,
            "byteOffset" : 1216
        },
        {
            "buffer" : 0,
            "byteLength" : 255408,
            "byteOffset" : 1408
        },
        {
            "buffer" : 0,
            "byteLength" : 255408,
            "byteOffset" : 256816
        },
        {
            "buffer" : 0,
            "byteLength" : 170272,
            "byteOffset" : 512224
        },
        {
            "buffer" : 0,
            "byteLength" : 165888,
            "byteOffset" : 682496
        },
        {
            "buffer" : 0,
            "byteLength" : 264,
            "byteOffset" : 848384
        },
        {
            "buffer" : 0,
            "byteLength" : 264,
            "byteOffset" : 848648
        },
        {
            "buffer" : 0,
            "byteLength" : 176,
            "byteOffset" : 848912
        },
        {
            "buffer" : 0,
            "byteLength" : 72,
            "byteOffset" : 849088
        }
    ],
    "samplers" : [
        {
            "magFilter" : 9729,
            "minFilter" : 9987
        }
    ],
    "buffers" : [
        {
            "byteLength" : 849160,
            "uri" : "NUXPanel.bin"
        }
    ]
}
