{
    "asset" : {
        "generator" : "Khronos glTF Blender I/O v3.2.43",
        "version" : "2.0"
    },
    "scene" : 0,
    "scenes" : [
        {
            "name" : "Scene",
            "nodes" : [
                3
            ]
        }
    ],
    "nodes" : [
        {
            "mesh" : 0,
            "name" : "PanelGraphic.003"
        },
        {
            "mesh" : 1,
            "name" : "Trim.004",
            "translation" : [
                0,
                0,
                0.054103173315525055
            ]
        },
        {
            "mesh" : 2,
            "name" : "VideoMask",
            "scale" : [
                0.46792343258857727,
                0.46792343258857727,
                0.46792343258857727
            ],
            "translation" : [
                0.000896003155503422,
                0.022018752992153168,
                -0.14047907292842865
            ]
        },
        {
            "children" : [
                0,
                1,
                2
            ],
            "name" : "LetsGetGardeningPanel",
            "rotation" : [
                0.7071068286895752,
                0,
                0,
                0.7071068286895752
            ],
            "scale" : [
                3.5,
                3.5,
                3.5
            ],
            "translation" : [
                0,
                0.3369663655757904,
                -0.05319517105817795
            ]
        }
    ],
    "materials" : [
        {
            "doubleSided" : true,
            "name" : "UIPanelWoodTexture",
            "pbrMetallicRoughness" : {
                "baseColorTexture" : {
                    "index" : 0
                },
                "metallicFactor" : 0,
                "roughnessFactor" : 0
            }
        },
        {
            "doubleSided" : true,
            "name" : "UIPanelTrim",
            "pbrMetallicRoughness" : {}
        },
        {
            "doubleSided" : true,
            "name" : "VideoMask",
            "pbrMetallicRoughness" : {
                "baseColorFactor" : [
                    0,
                    0.002273739781230688,
                    0.8000000715255737,
                    1
                ],
                "metallicFactor" : 0,
                "roughnessFactor" : 0.5
            }
        }
    ],
    "meshes" : [
        {
            "name" : "CUBezierCurve.001",
            "primitives" : [
                {
                    "attributes" : {
                        "POSITION" : 0,
                        "NORMAL" : 1,
                        "TEXCOORD_0" : 2
                    },
                    "indices" : 3,
                    "material" : 0
                }
            ]
        },
        {
            "name" : "CUBezierCurve.003",
            "primitives" : [
                {
                    "attributes" : {
                        "POSITION" : 4,
                        "NORMAL" : 5,
                        "TEXCOORD_0" : 6
                    },
                    "indices" : 7,
                    "material" : 1
                }
            ]
        },
        {
            "name" : "Plane",
            "primitives" : [
                {
                    "attributes" : {
                        "POSITION" : 8,
                        "NORMAL" : 9,
                        "TEXCOORD_0" : 10
                    },
                    "indices" : 11,
                    "material" : 2
                }
            ]
        }
    ],
    "textures" : [
        {
            "sampler" : 0,
            "source" : 0
        }
    ],
    "images" : [
        {
            "mimeType" : "image/png",
            "name" : "woodtexture",
            "uri" : "woodtexture.png"
        }
    ],
    "accessors" : [
        {
            "bufferView" : 0,
            "componentType" : 5126,
            "count" : 51,
            "max" : [
                0.1487303078174591,
                0.019682612270116806,
                0.27611973881721497
            ],
            "min" : [
                -0.1487303078174591,
                -0.017548266798257828,
                -0.16931916773319244
            ],
            "type" : "VEC3"
        },
        {
            "bufferView" : 1,
            "componentType" : 5126,
            "count" : 51,
            "type" : "VEC3"
        },
        {
            "bufferView" : 2,
            "componentType" : 5126,
            "count" : 51,
            "type" : "VEC2"
        },
        {
            "bufferView" : 3,
            "componentType" : 5123,
            "count" : 96,
            "type" : "SCALAR"
        },
        {
            "bufferView" : 4,
            "componentType" : 5126,
            "count" : 10696,
            "max" : [
                0.15642061829566956,
                0.029043613001704216,
                0.2303968220949173
            ],
            "min" : [
                -0.15642061829566956,
                -0.029043620452284813,
                -0.2303968220949173
            ],
            "type" : "VEC3"
        },
        {
            "bufferView" : 5,
            "componentType" : 5126,
            "count" : 10696,
            "type" : "VEC3"
        },
        {
            "bufferView" : 6,
            "componentType" : 5126,
            "count" : 10696,
            "type" : "VEC2"
        },
        {
            "bufferView" : 7,
            "componentType" : 5123,
            "count" : 41472,
            "type" : "SCALAR"
        },
        {
            "bufferView" : 8,
            "componentType" : 5126,
            "count" : 14,
            "max" : [
                0.30480000376701355,
                0,
                0.30480000376701355
            ],
            "min" : [
                -0.30480000376701355,
                0,
                -0.06263381242752075
            ],
            "type" : "VEC3"
        },
        {
            "bufferView" : 9,
            "componentType" : 5126,
            "count" : 14,
            "type" : "VEC3"
        },
        {
            "bufferView" : 10,
            "componentType" : 5126,
            "count" : 14,
            "type" : "VEC2"
        },
        {
            "bufferView" : 11,
            "componentType" : 5123,
            "count" : 24,
            "type" : "SCALAR"
        }
    ],
    "bufferViews" : [
        {
            "buffer" : 0,
            "byteLength" : 612,
            "byteOffset" : 0
        },
        {
            "buffer" : 0,
            "byteLength" : 612,
            "byteOffset" : 612
        },
        {
            "buffer" : 0,
            "byteLength" : 408,
            "byteOffset" : 1224
        },
        {
            "buffer" : 0,
            "byteLength" : 192,
            "byteOffset" : 1632
        },
        {
            "buffer" : 0,
            "byteLength" : 128352,
            "byteOffset" : 1824
        },
        {
            "buffer" : 0,
            "byteLength" : 128352,
            "byteOffset" : 130176
        },
        {
            "buffer" : 0,
            "byteLength" : 85568,
            "byteOffset" : 258528
        },
        {
            "buffer" : 0,
            "byteLength" : 82944,
            "byteOffset" : 344096
        },
        {
            "buffer" : 0,
            "byteLength" : 168,
            "byteOffset" : 427040
        },
        {
            "buffer" : 0,
            "byteLength" : 168,
            "byteOffset" : 427208
        },
        {
            "buffer" : 0,
            "byteLength" : 112,
            "byteOffset" : 427376
        },
        {
            "buffer" : 0,
            "byteLength" : 48,
            "byteOffset" : 427488
        }
    ],
    "samplers" : [
        {
            "magFilter" : 9729,
            "minFilter" : 9987
        }
    ],
    "buffers" : [
        {
            "byteLength" : 427536,
            "uri" : "NUXTallPanel.bin"
        }
    ]
}
