{
    "asset" : {
        "generator" : "Khronos glTF Blender I/O v1.6.16",
        "version" : "2.0"
    },
    "scene" : 0,
    "scenes" : [
        {
            "name" : "Scene",
            "nodes" : [
                6
            ]
        }
    ],
    "nodes" : [
        {
            "name" : "Root",
            "rotation" : [
                -2.980232949312267e-08,
                0,
                0,
                1
            ],
            "scale" : [
                1,
                0.9999999403953552,
                0.9999999403953552
            ]
        },
        {
            "name" : "Leaves_01",
            "rotation" : [
                -2.980232949312267e-08,
                1.1920928244535389e-07,
                -4.235164736271502e-22,
                1
            ],
            "scale" : [
                1,
                0.9999999403953552,
                0.9999999403953552
            ]
        },
        {
            "name" : "Leaves_02",
            "rotation" : [
                0,
                1.1920928955078125e-07,
                0,
                1
            ]
        },
        {
            "name" : "Leaves_03",
            "rotation" : [
                0,
                1.1920928955078125e-07,
                0,
                1
            ]
        },
        {
            "name" : "Leaves_04",
            "rotation" : [
                -2.980232949312267e-08,
                1.1920928244535389e-07,
                -4.235164736271502e-22,
                1
            ],
            "scale" : [
                1,
                0.9999999403953552,
                0.9999999403953552
            ]
        },
        {
            "mesh" : 0,
            "name" : "Flora_Succulent",
            "skin" : 0
        },
        {
            "children" : [
                5,
                0,
                1,
                2,
                3,
                4
            ],
            "name" : "Flora_Succulent_Armature"
        }
    ],
    "materials" : [
        {
            "name" : "SkinnedPlant_Flora_Succulent_A",
            "normalTexture" : {
                "index" : 0
            },
            "occlusionTexture" : {
                "index" : 1
            },
            "pbrMetallicRoughness" : {
                "baseColorTexture" : {
                    "index" : 2
                },
                "metallicRoughnessTexture" : {
                    "index" : 1
                }
            }
        }
    ],
    "meshes" : [
        {
            "name" : "Flora_Succulent",
            "primitives" : [
                {
                    "attributes" : {
                        "POSITION" : 0,
                        "NORMAL" : 1,
                        "TEXCOORD_0" : 2,
                        "JOINTS_0" : 3,
                        "WEIGHTS_0" : 4
                    },
                    "indices" : 5,
                    "material" : 0
                }
            ]
        }
    ],
    "textures" : [
        {
            "sampler" : 0,
            "source" : 0
        },
        {
            "sampler" : 0,
            "source" : 1
        },
        {
            "sampler" : 0,
            "source" : 2
        }
    ],
    "images" : [
        {
            "mimeType" : "image/png",
            "name" : "Flora_Succulent_NormalMap",
            "uri" : "Flora_Succulent_NormalMap.png"
        },
        {
            "mimeType" : "image/png",
            "name" : "Flora_Succulent_occlusionRoughnessMetallic",
            "uri" : "Flora_Succulent_occlusionRoughnessMetallic.png"
        },
        {
            "mimeType" : "image/png",
            "name" : "Flora_Succulent_C_BaseColor",
            "uri" : "Flora_Succulent_C_BaseColor.png"
        }
    ],
    "skins" : [
        {
            "inverseBindMatrices" : 6,
            "joints" : [
                0,
                1,
                2,
                3,
                4
            ],
            "name" : "Flora_Succulent_Armature"
        }
    ],
    "accessors" : [
        {
            "bufferView" : 0,
            "componentType" : 5126,
            "count" : 740,
            "max" : [
                0.02497919835150242,
                0.029240604490041733,
                0.02397431991994381
            ],
            "min" : [
                -0.025147996842861176,
                -2.379485275483262e-09,
                -0.02633926086127758
            ],
            "type" : "VEC3"
        },
        {
            "bufferView" : 1,
            "componentType" : 5126,
            "count" : 740,
            "type" : "VEC3"
        },
        {
            "bufferView" : 2,
            "componentType" : 5126,
            "count" : 740,
            "type" : "VEC2"
        },
        {
            "bufferView" : 3,
            "componentType" : 5121,
            "count" : 740,
            "type" : "VEC4"
        },
        {
            "bufferView" : 4,
            "componentType" : 5126,
            "count" : 740,
            "type" : "VEC4"
        },
        {
            "bufferView" : 5,
            "componentType" : 5123,
            "count" : 2880,
            "type" : "SCALAR"
        },
        {
            "bufferView" : 6,
            "componentType" : 5126,
            "count" : 5,
            "type" : "MAT4"
        }
    ],
    "bufferViews" : [
        {
            "buffer" : 0,
            "byteLength" : 8880,
            "byteOffset" : 0
        },
        {
            "buffer" : 0,
            "byteLength" : 8880,
            "byteOffset" : 8880
        },
        {
            "buffer" : 0,
            "byteLength" : 5920,
            "byteOffset" : 17760
        },
        {
            "buffer" : 0,
            "byteLength" : 2960,
            "byteOffset" : 23680
        },
        {
            "buffer" : 0,
            "byteLength" : 11840,
            "byteOffset" : 26640
        },
        {
            "buffer" : 0,
            "byteLength" : 5760,
            "byteOffset" : 38480
        },
        {
            "buffer" : 0,
            "byteLength" : 320,
            "byteOffset" : 44240
        }
    ],
    "samplers" : [
        {
            "magFilter" : 9729,
            "minFilter" : 9987
        }
    ],
    "buffers" : [
        {
            "byteLength" : 44560,
            "uri" : "Flora_Succulent_C.bin"
        }
    ]
}
