{
    "asset" : {
        "generator" : "Khronos glTF Blender I/O v1.6.16",
        "version" : "2.0"
    },
    "scene" : 0,
    "scenes" : [
        {
            "name" : "Scene",
            "nodes" : [
                6
            ]
        }
    ],
    "nodes" : [
        {
            "name" : "Root"
        },
        {
            "name" : "Flower_03",
            "rotation" : [
                -0.7687130570411682,
                -0.014616955071687698,
                -0.014578851871192455,
                0.6392605900764465
            ],
            "translation" : [
                0.01191177312284708,
                0.7243574261665344,
                -0.07543928921222687
            ]
        },
        {
            "name" : "Flower_01",
            "rotation" : [
                -0.5112653970718384,
                0.6233034729957581,
                0.5527260899543762,
                0.21117378771305084
            ],
            "scale" : [
                1.0000001192092896,
                1,
                1
            ],
            "translation" : [
                -0.06159140169620514,
                0.7610002160072327,
                0.012490625493228436
            ]
        },
        {
            "name" : "Flower_02",
            "rotation" : [
                -0.4380365312099457,
                -0.6777510643005371,
                -0.5905379056930542,
                0.0065270173363387585
            ],
            "scale" : [
                0.9999998211860657,
                0.9999999403953552,
                0.9999998807907104
            ],
            "translation" : [
                0.0015531384851783514,
                0.6403948664665222,
                0.015941230580210686
            ]
        },
        {
            "name" : "Leaves_01",
            "rotation" : [
                -0.019596386700868607,
                0.1896754503250122,
                -0.005750616081058979,
                0.9816344380378723
            ],
            "scale" : [
                1,
                1.0000001192092896,
                1
            ]
        },
        {
            "mesh" : 0,
            "name" : "Flora_Daffodil",
            "skin" : 0
        },
        {
            "children" : [
                5,
                0,
                1,
                2,
                3,
                4
            ],
            "name" : "Flora_Daffodil_Armature"
        }
    ],
    "materials" : [
        {
            "alphaCutoff" : 0.5,
            "alphaMode" : "MASK",
            "name" : "SkinnedPlant_Flora_Daffodil",
            "normalTexture" : {
                "index" : 0
            },
            "occlusionTexture" : {
                "index" : 1
            },
            "pbrMetallicRoughness" : {
                "baseColorTexture" : {
                    "index" : 2
                },
                "metallicRoughnessTexture" : {
                    "index" : 1
                }
            }
        }
    ],
    "meshes" : [
        {
            "name" : "Flora_Daffodil",
            "primitives" : [
                {
                    "attributes" : {
                        "POSITION" : 0,
                        "NORMAL" : 1,
                        "TEXCOORD_0" : 2,
                        "JOINTS_0" : 3,
                        "WEIGHTS_0" : 4
                    },
                    "indices" : 5,
                    "material" : 0
                }
            ]
        }
    ],
    "textures" : [
        {
            "sampler" : 0,
            "source" : 0
        },
        {
            "sampler" : 0,
            "source" : 1
        },
        {
            "sampler" : 0,
            "source" : 2
        }
    ],
    "images" : [
        {
            "mimeType" : "image/png",
            "name" : "Flora_Daffodil_NormalMap",
            "uri" : "Flora_Daffodil_NormalMap.png"
        },
        {
            "mimeType" : "image/png",
            "name" : "Flora_Daffodil_occlusionRoughnessMetallic",
            "uri" : "Flora_Daffodil_occlusionRoughnessMetallic.png"
        },
        {
            "mimeType" : "image/png",
            "name" : "Flora_Daffodil_BaseColor",
            "uri" : "Flora_Daffodil_BaseColor.png"
        }
    ],
    "skins" : [
        {
            "inverseBindMatrices" : 6,
            "joints" : [
                0,
                1,
                2,
                3,
                4
            ],
            "name" : "Flora_Daffodil_Armature"
        }
    ],
    "accessors" : [
        {
            "bufferView" : 0,
            "componentType" : 5126,
            "count" : 817,
            "max" : [
                0.1482938528060913,
                0.8580371141433716,
                0.1538841724395752
            ],
            "min" : [
                -0.22987958788871765,
                -0.0015149499522522092,
                -0.2225881814956665
            ],
            "type" : "VEC3"
        },
        {
            "bufferView" : 1,
            "componentType" : 5126,
            "count" : 817,
            "type" : "VEC3"
        },
        {
            "bufferView" : 2,
            "componentType" : 5126,
            "count" : 817,
            "type" : "VEC2"
        },
        {
            "bufferView" : 3,
            "componentType" : 5121,
            "count" : 817,
            "type" : "VEC4"
        },
        {
            "bufferView" : 4,
            "componentType" : 5126,
            "count" : 817,
            "type" : "VEC4"
        },
        {
            "bufferView" : 5,
            "componentType" : 5123,
            "count" : 2358,
            "type" : "SCALAR"
        },
        {
            "bufferView" : 6,
            "componentType" : 5126,
            "count" : 5,
            "type" : "MAT4"
        }
    ],
    "bufferViews" : [
        {
            "buffer" : 0,
            "byteLength" : 9804,
            "byteOffset" : 0
        },
        {
            "buffer" : 0,
            "byteLength" : 9804,
            "byteOffset" : 9804
        },
        {
            "buffer" : 0,
            "byteLength" : 6536,
            "byteOffset" : 19608
        },
        {
            "buffer" : 0,
            "byteLength" : 3268,
            "byteOffset" : 26144
        },
        {
            "buffer" : 0,
            "byteLength" : 13072,
            "byteOffset" : 29412
        },
        {
            "buffer" : 0,
            "byteLength" : 4716,
            "byteOffset" : 42484
        },
        {
            "buffer" : 0,
            "byteLength" : 320,
            "byteOffset" : 47200
        }
    ],
    "samplers" : [
        {
            "magFilter" : 9729,
            "minFilter" : 9987
        }
    ],
    "buffers" : [
        {
            "byteLength" : 47520,
            "uri" : "Flora_Daffodil.bin"
        }
    ]
}
