{
    "asset" : {
        "generator" : "Khronos glTF Blender I/O v1.6.16",
        "version" : "2.0"
    },
    "scene" : 0,
    "scenes" : [
        {
            "name" : "Scene",
            "nodes" : [
                6
            ]
        }
    ],
    "nodes" : [
        {
            "name" : "Root",
            "rotation" : [
                -2.980232949312267e-08,
                1.1920928244535389e-07,
                -4.235164736271502e-22,
                1
            ],
            "scale" : [
                1,
                0.9999999403953552,
                0.9999999403953552
            ]
        },
        {
            "name" : "Flowers_02",
            "rotation" : [
                0.1266220510005951,
                0.4553399384021759,
                0.45533987879753113,
                0.7545185685157776
            ]
        },
        {
            "name" : "Flowers_03",
            "rotation" : [
                -0.06897515803575516,
                -0.45200708508491516,
                -0.4520072042942047,
                0.7659123539924622
            ],
            "scale" : [
                1,
                1.0000001192092896,
                1.0000001192092896
            ]
        },
        {
            "name" : "Flowers_01",
            "rotation" : [
                -0.45248594880104065,
                0.09250848740339279,
                0.09250833094120026,
                0.8821229338645935
            ],
            "scale" : [
                0.9999999403953552,
                1,
                0.9999999403953552
            ]
        },
        {
            "name" : "Flowers_04",
            "rotation" : [
                0,
                1.1920928955078125e-07,
                0,
                1
            ]
        },
        {
            "mesh" : 0,
            "name" : "Flora_Nasturtium_Geo",
            "skin" : 0
        },
        {
            "children" : [
                5,
                0,
                1,
                2,
                3,
                4
            ],
            "name" : "Flora_Nasturtium"
        }
    ],
    "materials" : [
        {
            "alphaCutoff" : 0.5,
            "alphaMode" : "MASK",
            "name" : "SkinnedPlant_Flora_Nasturtium",
            "normalTexture" : {
                "index" : 0
            },
            "pbrMetallicRoughness" : {
                "baseColorTexture" : {
                    "index" : 1
                },
                "metallicRoughnessTexture" : {
                    "index" : 2
                }
            }
        }
    ],
    "meshes" : [
        {
            "name" : "high_0.001",
            "primitives" : [
                {
                    "attributes" : {
                        "POSITION" : 0,
                        "NORMAL" : 1,
                        "TEXCOORD_0" : 2,
                        "JOINTS_0" : 3,
                        "WEIGHTS_0" : 4
                    },
                    "indices" : 5,
                    "material" : 0
                }
            ]
        }
    ],
    "textures" : [
        {
            "sampler" : 0,
            "source" : 0
        },
        {
            "sampler" : 0,
            "source" : 1
        },
        {
            "sampler" : 0,
            "source" : 2
        }
    ],
    "images" : [
        {
            "mimeType" : "image/png",
            "name" : "Flora_Nasturtium_NormalMap",
            "uri" : "Flora_Nasturtium_NormalMap.png"
        },
        {
            "mimeType" : "image/png",
            "name" : "Flora_Nasturtium_BaseColor",
            "uri" : "Flora_Nasturtium_BaseColor.png"
        },
        {
            "mimeType" : "image/png",
            "name" : "Flora_Nasturtium_occlusionRoughnessMetallic",
            "uri" : "Flora_Nasturtium_occlusionRoughnessMetallic.png"
        }
    ],
    "skins" : [
        {
            "inverseBindMatrices" : 6,
            "joints" : [
                0,
                1,
                2,
                3,
                4
            ],
            "name" : "Flora_Nasturtium"
        }
    ],
    "accessors" : [
        {
            "bufferView" : 0,
            "componentType" : 5126,
            "count" : 4231,
            "max" : [
                0.15759748220443726,
                0.16499024629592896,
                0.16032889485359192
            ],
            "min" : [
                -0.14386558532714844,
                -0.010210107080638409,
                -0.14722171425819397
            ],
            "type" : "VEC3"
        },
        {
            "bufferView" : 1,
            "componentType" : 5126,
            "count" : 4231,
            "type" : "VEC3"
        },
        {
            "bufferView" : 2,
            "componentType" : 5126,
            "count" : 4231,
            "type" : "VEC2"
        },
        {
            "bufferView" : 3,
            "componentType" : 5121,
            "count" : 4231,
            "type" : "VEC4"
        },
        {
            "bufferView" : 4,
            "componentType" : 5126,
            "count" : 4231,
            "type" : "VEC4"
        },
        {
            "bufferView" : 5,
            "componentType" : 5123,
            "count" : 13872,
            "type" : "SCALAR"
        },
        {
            "bufferView" : 6,
            "componentType" : 5126,
            "count" : 5,
            "type" : "MAT4"
        }
    ],
    "bufferViews" : [
        {
            "buffer" : 0,
            "byteLength" : 50772,
            "byteOffset" : 0
        },
        {
            "buffer" : 0,
            "byteLength" : 50772,
            "byteOffset" : 50772
        },
        {
            "buffer" : 0,
            "byteLength" : 33848,
            "byteOffset" : 101544
        },
        {
            "buffer" : 0,
            "byteLength" : 16924,
            "byteOffset" : 135392
        },
        {
            "buffer" : 0,
            "byteLength" : 67696,
            "byteOffset" : 152316
        },
        {
            "buffer" : 0,
            "byteLength" : 27744,
            "byteOffset" : 220012
        },
        {
            "buffer" : 0,
            "byteLength" : 320,
            "byteOffset" : 247756
        }
    ],
    "samplers" : [
        {
            "magFilter" : 9729,
            "minFilter" : 9987
        }
    ],
    "buffers" : [
        {
            "byteLength" : 248076,
            "uri" : "Flora_Nasturtium.bin"
        }
    ]
}
