{
    "asset" : {
        "generator" : "Khronos glTF Blender I/O v1.8.19",
        "version" : "2.0"
    },
    "scene" : 0,
    "scenes" : [
        {
            "name" : "Scene",
            "nodes" : [
                0
            ]
        }
    ],
    "nodes" : [
        {
            "mesh" : 0,
            "name" : "Fauna_Duck_A"
        }
    ],
    "materials" : [
        {
            "doubleSided" : true,
            "name" : "Fauna_Duck_A",
            "normalTexture" : {
                "index" : 0
            },
            "occlusionTexture" : {
                "index" : 1
            },
            "pbrMetallicRoughness" : {
                "baseColorTexture" : {
                    "index" : 2
                },
                "metallicRoughnessTexture" : {
                    "index" : 1
                }
            }
        }
    ],
    "meshes" : [
        {
            "extras" : {
                "targetNames" : [
                    "Paddle_LeftLegForward",
                    "Paddle_RightLegForward",
                    "StretchForward"
                ]
            },
            "name" : "Fauna_Duck",
            "primitives" : [
                {
                    "attributes" : {
                        "POSITION" : 0,
                        "NORMAL" : 1,
                        "TEXCOORD_0" : 2
                    },
                    "indices" : 3,
                    "material" : 0,
                    "targets" : [
                        {
                            "POSITION" : 4,
                            "NORMAL" : 5
                        },
                        {
                            "POSITION" : 6,
                            "NORMAL" : 7
                        },
                        {
                            "POSITION" : 8,
                            "NORMAL" : 9
                        }
                    ]
                }
            ],
            "weights" : [
                0,
                0,
                0
            ]
        }
    ],
    "textures" : [
        {
            "sampler" : 0,
            "source" : 0
        },
        {
            "sampler" : 0,
            "source" : 1
        },
        {
            "sampler" : 0,
            "source" : 2
        }
    ],
    "images" : [
        {
            "mimeType" : "image/png",
            "name" : "Fauna_Duck_NormalMap",
            "uri" : "Fauna_Duck_NormalMap.png"
        },
        {
            "mimeType" : "image/png",
            "name" : "Fauna_Duck_A_occlusionRoughnessMetallic",
            "uri" : "Fauna_Duck_A_occlusionRoughnessMetallic.png"
        },
        {
            "mimeType" : "image/png",
            "name" : "Fauna_Duck_A_BaseColor",
            "uri" : "Fauna_Duck_A_BaseColor.png"
        }
    ],
    "accessors" : [
        {
            "bufferView" : 0,
            "componentType" : 5126,
            "count" : 287,
            "max" : [
                0.10145874321460724,
                0.3086217939853668,
                0.1170288473367691
            ],
            "min" : [
                -0.1128215342760086,
                -0.18594634532928467,
                -0.2555975317955017
            ],
            "type" : "VEC3"
        },
        {
            "bufferView" : 1,
            "componentType" : 5126,
            "count" : 287,
            "type" : "VEC3"
        },
        {
            "bufferView" : 2,
            "componentType" : 5126,
            "count" : 287,
            "type" : "VEC2"
        },
        {
            "bufferView" : 3,
            "componentType" : 5123,
            "count" : 1029,
            "type" : "SCALAR"
        },
        {
            "bufferView" : 4,
            "componentType" : 5126,
            "count" : 287,
            "max" : [
                0.007192268967628479,
                0.042059510946273804,
                0.07543902844190598
            ],
            "min" : [
                -0.0051925405859947205,
                -0.008392903953790665,
                -0.10393713414669037
            ],
            "type" : "VEC3"
        },
        {
            "bufferView" : 5,
            "componentType" : 5126,
            "count" : 287,
            "type" : "VEC3"
        },
        {
            "bufferView" : 6,
            "componentType" : 5126,
            "count" : 287,
            "max" : [
                6.230548024177551e-05,
                0.03788255155086517,
                0.0869668573141098
            ],
            "min" : [
                -4.2788684368133545e-05,
                -0.0071938857436180115,
                -0.08385377377271652
            ],
            "type" : "VEC3"
        },
        {
            "bufferView" : 7,
            "componentType" : 5126,
            "count" : 287,
            "type" : "VEC3"
        },
        {
            "bufferView" : 8,
            "componentType" : 5126,
            "count" : 287,
            "max" : [
                0.030049331486225128,
                0.057088062167167664,
                0.2806627154350281
            ],
            "min" : [
                -0.014991417527198792,
                -0.22619161009788513,
                -0.05321606993675232
            ],
            "type" : "VEC3"
        },
        {
            "bufferView" : 9,
            "componentType" : 5126,
            "count" : 287,
            "type" : "VEC3"
        }
    ],
    "bufferViews" : [
        {
            "buffer" : 0,
            "byteLength" : 3444,
            "byteOffset" : 0
        },
        {
            "buffer" : 0,
            "byteLength" : 3444,
            "byteOffset" : 3444
        },
        {
            "buffer" : 0,
            "byteLength" : 2296,
            "byteOffset" : 6888
        },
        {
            "buffer" : 0,
            "byteLength" : 2058,
            "byteOffset" : 9184
        },
        {
            "buffer" : 0,
            "byteLength" : 3444,
            "byteOffset" : 11244
        },
        {
            "buffer" : 0,
            "byteLength" : 3444,
            "byteOffset" : 14688
        },
        {
            "buffer" : 0,
            "byteLength" : 3444,
            "byteOffset" : 18132
        },
        {
            "buffer" : 0,
            "byteLength" : 3444,
            "byteOffset" : 21576
        },
        {
            "buffer" : 0,
            "byteLength" : 3444,
            "byteOffset" : 25020
        },
        {
            "buffer" : 0,
            "byteLength" : 3444,
            "byteOffset" : 28464
        }
    ],
    "samplers" : [
        {
            "magFilter" : 9729,
            "minFilter" : 9987
        }
    ],
    "buffers" : [
        {
            "byteLength" : 31908,
            "uri" : "Fauna_Duck_A.bin"
        }
    ]
}
