{
  "asset": {
    "generator": "glTF-Transform v2.4.3",
    "version": "2.0"
  },
  "accessors": [
    {
      "type": "SCALAR",
      "componentType": 5123,
      "count": 1029,
      "bufferView": 0,
      "byteOffset": 0
    },
    {
      "type": "VEC2",
      "componentType": 5126,
      "count": 291,
      "bufferView": 1,
      "byteOffset": 0
    },
    {
      "type": "VEC3",
      "componentType": 5122,
      "count": 291,
      "max": [
        8597,
        30523,
        -2876
      ],
      "min": [
        -8597,
        -9149,
        -32767
      ],
      "normalized": true,
      "bufferView": 1,
      "byteOffset": 8
    },
    {
      "type": "VEC3",
      "componentType": 5120,
      "count": 291,
      "normalized": true,
      "bufferView": 1,
      "byteOffset": 16
    },
    {
      "type": "VEC4",
      "componentType": 5120,
      "count": 291,
      "normalized": true,
      "bufferView": 1,
      "byteOffset": 20
    },
    {
      "type": "VEC3",
      "componentType": 5122,
      "count": 291,
      "max": [
        576,
        3372,
        6052
      ],
      "min": [
        -416,
        -672,
        -8337
      ],
      "normalized": true,
      "bufferView": 2,
      "byteOffset": 0
    },
    {
      "type": "VEC3",
      "componentType": 5120,
      "count": 291,
      "normalized": true,
      "bufferView": 2,
      "byteOffset": 8
    },
    {
      "type": "VEC3",
      "componentType": 5122,
      "count": 291,
      "max": [
        4,
        3040,
        6976
      ],
      "min": [
        -4,
        -576,
        -6728
      ],
      "normalized": true,
      "bufferView": 3,
      "byteOffset": 0
    },
    {
      "type": "VEC3",
      "componentType": 5120,
      "count": 291,
      "normalized": true,
      "bufferView": 3,
      "byteOffset": 8
    },
    {
      "type": "VEC3",
      "componentType": 5122,
      "count": 291,
      "max": [
        2412,
        4580,
        22514
      ],
      "min": [
        -1204,
        -18146,
        -4268
      ],
      "normalized": true,
      "bufferView": 4,
      "byteOffset": 0
    },
    {
      "type": "VEC3",
      "componentType": 5120,
      "count": 291,
      "normalized": true,
      "bufferView": 4,
      "byteOffset": 8
    }
  ],
  "bufferViews": [
    {
      "buffer": 0,
      "byteOffset": 0,
      "byteLength": 2060,
      "target": 34963
    },
    {
      "buffer": 0,
      "byteOffset": 2060,
      "byteLength": 6984,
      "byteStride": 24,
      "target": 34962
    },
    {
      "buffer": 0,
      "byteOffset": 9044,
      "byteLength": 3492,
      "byteStride": 12,
      "target": 34962
    },
    {
      "buffer": 0,
      "byteOffset": 12536,
      "byteLength": 3492,
      "byteStride": 12,
      "target": 34962
    },
    {
      "buffer": 0,
      "byteOffset": 16028,
      "byteLength": 3492,
      "byteStride": 12,
      "target": 34962
    }
  ],
  "samplers": [
    {
      "magFilter": 9729,
      "minFilter": 9987,
      "wrapS": 10497,
      "wrapT": 10497
    }
  ],
  "textures": [
    {
      "sampler": 0,
      "extensions": {
        "KHR_texture_basisu": {
          "source": 2
        }
      }
    },
    {
      "sampler": 0,
      "extensions": {
        "KHR_texture_basisu": {
          "source": 0
        }
      }
    },
    {
      "sampler": 0,
      "extensions": {
        "KHR_texture_basisu": {
          "source": 1
        }
      }
    }
  ],
  "images": [
    {
      "name": "Fauna_Duck_NormalMap",
      "mimeType": "image/ktx2",
      "uri": "Fauna_Duck_NormalMap.ktx2"
    },
    {
      "name": "Fauna_Duck_B_occlusionRoughnessMetallic",
      "mimeType": "image/ktx2",
      "uri": "Fauna_Duck_B_occlusionRoughnessMetallic.ktx2"
    },
    {
      "name": "Fauna_Duck_B_BaseColor",
      "mimeType": "image/ktx2",
      "uri": "Fauna_Duck_B_BaseColor.ktx2"
    }
  ],
  "buffers": [
    {
      "uri": "Fauna_Duck_B.bin",
      "byteLength": 19520
    }
  ],
  "materials": [
    {
      "name": "Fauna_Duck_B",
      "pbrMetallicRoughness": {
        "baseColorTexture": {
          "index": 0
        },
        "metallicRoughnessTexture": {
          "index": 2
        }
      },
      "normalTexture": {
        "index": 1
      },
      "occlusionTexture": {
        "index": 2
      }
    }
  ],
  "meshes": [
    {
      "name": "Fauna_Duck",
      "extras": {
        "targetNames": [
          "Paddle_LeftLegForward",
          "Paddle_RightLegForward",
          "StretchForward"
        ]
      },
      "primitives": [
        {
          "attributes": {
            "TEXCOORD_0": 1,
            "POSITION": 2,
            "NORMAL": 3,
            "TANGENT": 4
          },
          "mode": 4,
          "material": 0,
          "indices": 0,
          "targets": [
            {
              "POSITION": 5,
              "NORMAL": 6
            },
            {
              "POSITION": 7,
              "NORMAL": 8
            },
            {
              "POSITION": 9,
              "NORMAL": 10
            }
          ]
        }
      ],
      "weights": [
        0,
        0,
        0
      ]
    }
  ],
  "nodes": [
    {
      "name": "Fauna_Duck_B",
      "translation": [
        -0.005681395530700684,
        -0.07188071310520172,
        0.15286394953727722
      ],
      "scale": [
        0.40846148133277893,
        0.40846148133277893,
        0.40846148133277893
      ],
      "mesh": 0
    }
  ],
  "scenes": [
    {
      "name": "Scene",
      "nodes": [
        0
      ]
    }
  ],
  "scene": 0,
  "extensionsUsed": [
    "KHR_texture_basisu",
    "KHR_mesh_quantization"
  ],
  "extensionsRequired": [
    "KHR_texture_basisu",
    "KHR_mesh_quantization"
  ]
}